{"glyphs":{"0":{"ha":711,"x_min":78,"x_max":751,"o":"m 680 585 q 693 571 680 585 q 729 503 707 557 q 751 383 751 450 q 730 255 751 317 q 674 149 708 193 q 597 69 639 106 q 514 11 556 33 q 381 -50 421 -37 l 358 -56 q 167 44 239 -22 q 86 139 101 104 l 78 154 q 97 332 78 250 q 142 461 115 414 q 244 592 197 558 l 263 604 q 412 622 342 606 q 514 653 482 638 l 544 668 q 567 661 553 665 q 617 635 581 657 q 680 585 653 614 m 465 332 l 261 329 q 257 303 257 315 q 321 228 257 251 q 409 211 367 211 q 489 219 451 211 q 576 289 576 240 q 553 326 576 321 q 465 332 529 332 z "},"1":{"ha":350,"x_min":94,"x_max":436,"o":"m 157 614 q 436 675 279 658 q 339 259 374 443 q 300 6 304 75 l 296 -62 q 94 61 190 -31 q 118 358 103 219 q 144 556 133 496 l 157 614 z "},"2":{"ha":696,"x_min":58,"x_max":699,"o":"m 422 406 q 351 457 422 451 l 332 458 q 200 428 263 458 q 108 369 138 399 l 81 339 q 213 613 119 511 q 464 714 307 714 q 642 660 589 714 q 696 533 696 607 q 680 448 696 478 q 656 402 664 418 q 626 363 649 386 q 594 330 603 340 q 553 296 585 319 q 513 266 521 272 q 468 234 506 260 q 425 204 431 208 q 560 219 492 204 q 664 247 628 233 l 699 263 q 674 -17 674 149 q 408 24 592 6 q 58 43 225 43 q 418 381 382 264 q 422 406 422 394 z "},"3":{"ha":654,"x_min":53,"x_max":739,"o":"m 161 663 q 397 646 299 646 q 739 658 603 646 q 718 613 732 642 q 649 502 704 583 q 524 350 593 421 q 617 321 574 350 q 651 281 636 308 q 667 210 667 254 q 647 120 667 167 q 581 26 626 74 q 242 -118 486 -74 q 143 -9 190 -78 q 75 108 96 60 l 53 158 q 282 125 185 125 q 436 161 397 125 q 454 197 454 178 q 400 244 454 232 q 333 251 365 251 l 269 247 q 239 254 247 247 l 429 433 q 257 418 340 433 q 135 388 174 403 l 96 372 q 161 663 161 532 z "},"4":{"ha":746,"x_min":54,"x_max":797,"o":"m 471 250 q 503 658 503 464 q 503 669 503 664 l 501 733 q 742 633 640 694 q 700 376 732 506 l 686 321 q 674 272 676 282 l 797 289 l 757 129 l 642 138 l 606 -33 l 375 -79 l 435 119 l 54 101 q 129 360 106 221 q 153 582 153 500 q 153 596 153 589 l 150 681 l 432 642 q 401 588 419 622 q 347 452 382 554 q 300 253 311 350 l 471 250 z "},"5":{"ha":654,"x_min":57,"x_max":707,"o":"m 497 257 q 397 303 497 303 q 108 279 296 303 q 168 701 168 525 q 199 701 183 701 q 667 731 378 701 l 707 482 q 600 483 650 483 q 349 474 453 483 l 289 468 q 329 417 289 431 q 427 401 369 403 q 542 392 485 399 q 640 351 600 386 q 681 249 681 317 q 564 56 681 132 q 247 -49 456 -17 q 146 60 193 -4 q 78 167 99 125 l 57 208 q 239 186 165 186 q 497 257 497 186 z "},"6":{"ha":696,"x_min":69,"x_max":738,"o":"m 403 439 q 528 461 471 461 q 631 447 585 461 q 707 390 676 433 q 738 282 738 347 q 623 63 738 154 q 357 -29 508 -29 q 263 -6 310 -29 q 183 50 217 18 q 83 174 113 119 l 69 197 q 125 424 86 325 q 214 579 164 522 q 442 714 318 696 q 509 721 482 721 q 572 718 536 721 q 647 700 607 715 q 707 665 686 685 q 588 621 643 650 q 500 561 533 592 q 411 457 433 500 l 403 439 m 333 304 q 327 297 333 304 q 319 286 322 290 q 312 272 317 282 q 307 258 307 261 q 313 242 307 254 q 331 228 318 231 q 411 218 363 218 q 575 236 499 218 l 599 242 q 591 281 599 267 q 560 301 583 294 q 514 310 536 308 q 439 314 492 311 q 344 321 386 317 q 333 304 343 318 z "},"7":{"ha":589,"x_min":65,"x_max":690,"o":"m 690 696 q 494 24 522 176 q 440 2 475 15 q 311 -25 404 -11 q 161 -39 218 -39 q 65 -36 104 -39 l 81 -24 q 294 239 174 53 q 411 436 353 326 q 131 400 243 421 l 89 393 q 131 544 103 467 q 182 664 160 622 l 204 704 q 261 688 215 697 q 431 675 328 675 q 690 696 535 675 z "},"8":{"ha":703,"x_min":83,"x_max":754,"o":"m 117 457 q 218 638 117 565 q 514 721 319 710 q 654 644 594 693 q 733 561 714 596 l 754 526 q 722 410 754 457 q 603 328 690 363 q 636 309 611 325 q 675 278 661 293 q 715 197 715 239 q 590 32 715 108 q 301 -44 465 -44 q 146 56 199 -3 q 83 144 97 107 q 142 241 104 200 q 208 294 181 282 l 236 308 q 131 401 164 332 q 117 457 117 428 m 558 378 q 563 385 558 378 q 571 396 568 392 q 578 410 574 400 q 583 424 583 421 q 578 440 583 428 q 560 456 572 451 q 479 464 528 464 q 315 447 381 464 l 292 440 q 299 401 292 415 q 331 381 307 388 q 376 372 354 374 q 451 368 399 371 q 546 361 504 365 q 558 378 547 364 m 271 219 q 301 193 271 204 q 392 182 331 182 q 499 199 453 182 q 546 242 546 217 q 517 265 546 258 q 397 271 489 271 q 276 235 306 271 q 271 219 271 226 z "},"9":{"ha":697,"x_min":94,"x_max":763,"o":"m 429 257 q 304 235 361 235 q 201 249 247 235 q 125 306 156 263 q 94 414 94 349 q 205 643 94 561 q 475 725 315 725 q 569 701 522 725 q 649 644 615 678 q 750 522 722 571 l 763 499 q 707 272 746 371 q 617 117 668 174 q 390 -19 514 0 q 323 -25 350 -25 q 260 -22 296 -25 q 185 -4 225 -19 q 125 31 146 11 q 244 75 189 46 q 331 133 299 104 q 419 239 399 196 l 429 257 m 555 378 q 560 385 555 378 q 568 396 565 392 q 576 410 571 400 q 581 424 581 421 q 575 440 581 428 q 557 456 569 451 q 476 464 525 464 q 313 447 378 464 l 289 440 q 297 401 289 415 q 328 381 304 388 q 374 372 351 374 q 449 368 396 371 q 543 361 501 365 q 555 378 544 364 z "}," ":{"ha":181,"x_min":0,"x_max":0,"o":""},"!":{"ha":353,"x_min":79,"x_max":431,"o":"m 351 17 q 246 -35 307 -18 q 153 -53 185 -53 q 97 -47 122 -53 q 80 40 81 8 q 79 100 79 72 q 86 156 79 128 l 94 188 q 264 179 185 188 l 290 176 l 351 17 m 179 280 q 172 289 179 280 q 149 331 164 297 q 131 393 135 364 q 128 449 128 422 q 164 657 128 539 q 276 695 194 676 q 431 714 358 714 q 415 695 425 707 q 380 639 406 683 q 332 543 354 594 q 250 232 274 410 q 239 235 246 233 q 213 250 232 238 q 179 280 194 263 z "},"\"":{"ha":464,"x_min":131,"x_max":588,"o":"m 164 486 q 172 572 172 536 q 147 747 172 672 l 131 794 l 325 847 q 328 776 328 815 q 317 681 328 736 q 281 589 306 625 q 183 494 228 511 l 164 486 m 422 486 q 431 572 431 536 q 406 747 431 672 l 389 794 l 583 847 q 586 776 586 815 q 575 681 586 736 q 539 589 564 625 q 442 494 486 511 l 422 486 z "},"#":{"ha":689,"x_min":56,"x_max":747,"o":"m 504 3 l 383 -51 q 429 160 403 29 q 306 149 379 157 q 254 -110 271 -11 l 161 -18 l 189 138 l 56 121 l 76 246 q 210 247 164 246 l 228 350 l 93 338 l 143 457 q 249 460 174 457 l 294 706 l 440 649 q 385 468 418 586 l 488 476 q 539 797 510 597 l 694 742 l 629 490 l 729 501 l 747 397 l 601 383 l 572 269 l 710 282 l 694 169 q 546 165 621 169 l 504 3 m 356 361 q 329 253 333 272 l 449 261 l 469 372 l 356 361 z "},"$":{"ha":651,"x_min":74,"x_max":693,"o":"m 685 275 q 592 128 685 194 q 204 32 481 49 q 134 131 174 63 q 74 264 94 200 q 325 238 231 238 q 469 299 469 238 q 181 357 239 319 q 119 467 119 396 q 260 663 119 593 q 654 732 401 732 l 693 461 q 331 506 561 499 q 508 413 331 442 q 629 367 574 401 q 685 275 685 332 m 365 744 q 359 746 365 744 q 340 760 353 749 q 321 789 326 772 q 315 819 315 806 q 329 910 315 864 l 515 949 q 421 738 450 860 q 413 737 418 738 q 392 738 407 736 q 365 744 378 739 m 303 21 l 314 22 q 383 -4 356 22 q 408 -74 408 -29 q 396 -151 408 -107 l 224 -190 q 303 21 275 -101 z "},"%":{"ha":1063,"x_min":106,"x_max":1083,"o":"m 689 740 q 766 708 719 719 q 839 696 813 696 q 879 697 865 696 q 783 519 844 636 q 683 332 722 401 q 588 176 643 263 q 356 -61 478 7 l 689 740 m 500 585 q 514 504 514 553 q 490 407 514 456 q 431 331 465 358 q 300 253 358 272 l 275 246 q 174 294 217 263 q 119 350 132 326 l 106 374 q 178 610 106 519 q 206 639 194 631 l 218 646 q 308 656 265 646 q 369 675 350 665 l 388 683 q 500 585 465 664 m 344 474 l 225 472 q 222 454 222 463 q 253 404 222 418 q 309 390 285 390 q 356 397 333 390 q 406 446 406 411 q 392 471 406 468 q 344 474 379 474 m 1069 307 q 1083 226 1083 275 q 1059 129 1083 178 q 1000 53 1035 81 q 869 -25 928 -6 l 844 -32 q 744 17 786 -15 q 689 72 701 49 l 675 96 q 747 332 675 242 q 775 361 764 353 l 788 368 q 877 378 835 368 q 939 397 919 388 l 957 406 q 1069 307 1035 386 m 914 196 l 794 194 q 792 176 792 185 q 823 126 792 140 q 878 113 854 113 q 925 119 903 113 q 975 168 975 133 q 962 193 975 190 q 914 196 949 196 z "},"&":{"ha":1057,"x_min":97,"x_max":1153,"o":"m 539 442 q 310 403 389 442 q 444 306 310 315 q 465 304 454 304 q 638 335 533 304 q 616 294 633 318 q 576 253 599 269 q 509 222 553 236 q 417 208 465 208 q 336 213 369 208 l 300 119 q 433 103 369 103 q 778 272 635 103 q 776 299 776 281 l 679 299 q 775 361 714 328 q 826 607 779 474 l 1025 649 q 953 436 1025 561 q 1153 468 1044 464 q 1063 300 1110 399 l 919 299 q 914 174 914 247 q 933 6 914 101 q 903 27 925 8 q 864 64 881 46 q 799 182 824 111 q 349 -64 661 -64 q 218 -44 272 -64 q 140 6 164 -25 q 97 113 97 64 q 133 228 97 169 q 157 259 147 251 q 172 272 167 267 q 153 286 165 276 q 125 329 142 296 q 108 406 108 363 q 178 572 108 504 q 585 696 308 696 l 711 421 q 539 442 629 442 z "},"'":{"ha":206,"x_min":131,"x_max":329,"o":"m 164 486 q 172 572 172 536 q 147 747 172 672 l 131 794 l 325 847 q 328 776 328 815 q 317 681 328 736 q 281 589 306 625 q 183 494 228 511 l 164 486 z "},"(":{"ha":372,"x_min":89,"x_max":438,"o":"m 191 37 q 172 54 191 37 q 121 135 153 71 q 89 286 89 199 q 121 456 89 374 q 197 586 153 539 q 365 715 292 686 l 397 728 l 438 564 q 319 451 367 522 q 276 357 296 417 q 257 228 257 297 q 288 85 257 158 q 350 -25 319 11 l 382 -62 q 284 -25 339 -53 q 191 37 229 3 z "},")":{"ha":374,"x_min":64,"x_max":413,"o":"m 310 628 q 330 611 310 628 q 381 531 349 594 q 413 379 413 467 q 381 209 413 292 q 303 78 349 126 q 136 -50 210 -21 l 104 -62 l 64 101 q 182 214 135 143 q 225 308 206 249 q 244 438 244 368 q 213 581 244 507 q 150 692 182 654 l 119 728 q 217 690 163 718 q 310 628 272 663 z "},"*":{"ha":604,"x_min":129,"x_max":653,"o":"m 411 189 q 254 161 356 161 q 329 392 296 250 q 259 331 290 368 q 217 267 228 293 l 206 242 q 135 351 151 301 l 129 368 q 185 416 142 389 q 279 458 229 443 q 219 509 257 486 q 156 540 182 532 l 129 549 q 279 636 193 608 q 353 507 324 579 q 371 728 371 618 q 524 744 431 744 q 450 500 483 642 q 522 569 494 529 q 556 635 550 610 l 563 660 q 619 609 596 639 q 647 560 642 579 l 653 540 q 532 456 600 488 l 508 444 q 565 394 529 417 q 626 361 601 371 l 651 353 q 513 272 597 289 q 428 388 458 326 q 411 189 411 292 z "},"+":{"ha":614,"x_min":67,"x_max":668,"o":"m 68 265 q 217 356 68 322 q 263 489 235 443 l 271 503 q 287 508 276 504 q 331 519 297 511 q 472 538 414 538 q 554 533 529 538 l 506 392 l 668 399 q 435 188 646 206 l 344 -58 q 316 -38 333 -51 q 258 24 299 -25 q 196 129 218 72 q 199 210 196 160 q 86 243 132 226 l 71 249 q 68 265 68 257 z "},",":{"ha":326,"x_min":22,"x_max":321,"o":"m 274 236 q 283 227 274 236 q 306 183 292 218 q 321 97 321 149 q 299 -8 321 44 q 244 -94 276 -61 q 129 -185 179 -162 l 107 -194 q 129 -65 129 -121 q 111 28 129 -8 q 39 115 81 93 l 22 124 l 186 290 q 229 270 203 286 q 274 236 256 254 z "},"-":{"ha":471,"x_min":65,"x_max":501,"o":"m 468 346 l 501 228 l 147 190 q 119 255 139 224 q 82 300 99 286 l 65 315 q 468 346 189 346 z "},".":{"ha":324,"x_min":26,"x_max":333,"o":"m 26 124 l 190 290 q 285 206 250 263 q 328 106 321 149 l 333 63 l 188 -15 q 104 19 144 -15 q 44 89 64 54 l 26 124 z "},"/":{"ha":418,"x_min":29,"x_max":532,"o":"m 326 736 q 413 704 361 717 q 491 692 464 692 q 532 693 518 692 l 196 -86 q 29 32 128 -22 q 294 656 190 396 l 326 736 z "},":":{"ha":406,"x_min":106,"x_max":422,"o":"m 115 556 l 279 722 q 374 638 339 694 q 417 538 410 581 l 422 494 l 276 417 q 193 451 233 417 q 133 521 153 486 l 115 556 m 418 157 l 331 -26 q 288 -19 314 -25 q 201 22 261 -12 q 106 108 140 57 q 174 201 133 160 q 243 260 215 243 l 271 276 q 397 171 335 213 l 418 157 z "},";":{"ha":415,"x_min":106,"x_max":413,"o":"m 357 236 q 366 227 357 236 q 390 183 375 218 q 404 97 404 149 q 382 -8 404 44 q 328 -94 360 -61 q 213 -185 263 -162 l 190 -194 q 213 -65 213 -121 q 194 28 213 -8 q 122 115 164 93 l 106 124 l 269 290 q 313 270 286 286 q 357 236 339 254 m 106 556 l 269 722 q 365 638 329 694 q 406 538 400 581 l 413 494 l 267 417 q 183 451 224 417 q 125 521 143 486 l 106 556 z "},"<":{"ha":643,"x_min":90,"x_max":694,"o":"m 90 392 q 315 569 207 475 q 472 714 422 663 l 521 765 q 589 661 546 707 q 664 600 632 615 l 694 583 l 333 368 q 465 249 385 303 q 597 175 544 196 l 651 154 q 614 128 638 144 q 516 81 590 113 q 369 38 442 49 q 128 342 239 194 l 90 392 z "},"=":{"ha":671,"x_min":67,"x_max":758,"o":"m 197 567 l 758 567 l 713 438 q 185 428 379 438 l 129 425 l 197 567 m 136 333 l 686 335 l 638 208 q 307 197 450 208 q 115 175 164 186 l 67 165 l 136 333 z "},">":{"ha":638,"x_min":93,"x_max":697,"o":"m 697 369 q 473 192 581 286 q 317 47 365 99 l 267 -4 q 199 100 242 54 q 125 161 156 146 l 93 178 l 454 393 q 323 512 403 458 q 189 586 243 565 l 136 607 q 174 633 150 617 q 272 681 197 649 q 418 724 346 713 q 660 419 549 567 l 697 369 z "},"?":{"ha":629,"x_min":104,"x_max":706,"o":"m 485 449 l 485 457 q 104 390 236 443 q 143 538 117 467 q 189 642 169 608 l 208 674 q 524 715 358 715 q 561 690 536 711 q 607 644 586 669 q 706 472 664 576 q 670 422 699 458 q 614 356 642 385 q 433 219 543 282 l 279 246 q 444 378 403 324 q 485 449 485 429 m 460 17 q 354 -35 415 -18 q 262 -53 293 -53 q 206 -47 231 -53 q 188 40 189 8 q 188 100 188 72 q 194 156 188 128 l 203 188 q 372 179 293 188 l 399 176 l 460 17 z "},"@":{"ha":933,"x_min":81,"x_max":994,"o":"m 592 615 q 314 517 407 615 q 221 244 221 419 q 335 -25 221 39 q 506 -64 404 -64 q 579 -60 547 -64 q 742 -43 694 -46 q 542 -167 671 -125 q 399 -194 460 -194 q 285 -176 339 -194 q 185 -117 232 -158 q 109 7 138 -75 q 81 185 81 89 q 103 363 81 282 q 156 501 125 444 q 274 671 219 617 l 296 693 q 665 781 515 781 q 916 694 838 781 q 994 465 994 607 q 910 191 994 322 q 729 60 825 60 q 628 172 647 60 q 465 18 556 63 q 440 31 456 22 q 385 76 424 39 q 322 165 347 114 q 392 389 322 272 q 488 481 426 444 q 626 517 550 517 q 692 504 664 517 q 779 531 733 531 l 764 182 q 804 240 781 204 q 867 367 828 276 q 907 522 907 457 q 861 551 897 532 q 792 583 825 571 q 592 615 704 615 m 622 238 q 622 281 622 243 q 640 419 622 318 q 523 290 558 361 q 488 174 488 219 q 490 150 488 161 q 622 238 556 168 z "},"A":{"ha":710,"x_min":32,"x_max":742,"o":"m 693 721 q 690 550 690 646 q 701 327 690 454 q 726 150 711 200 l 742 101 q 482 -58 649 28 q 483 40 483 -8 q 482 135 483 89 q 374 125 426 125 q 289 126 322 125 q 235 -43 269 71 q 125 34 185 -18 q 32 138 65 86 q 111 260 75 181 q 253 651 189 425 q 693 721 553 674 m 453 504 q 325 228 400 425 q 478 226 354 226 q 457 471 469 371 l 453 504 z "},"B":{"ha":796,"x_min":71,"x_max":867,"o":"m 717 52 q 683 27 717 52 q 563 -16 649 3 q 419 -37 476 -35 q 315 -40 363 -40 q 199 -24 267 -40 q 167 -6 179 -14 q 121 33 154 1 q 71 99 88 64 q 153 238 113 160 q 214 364 194 315 l 235 411 q 119 378 164 403 l 106 369 q 135 523 114 453 q 172 622 156 593 l 189 650 q 638 715 400 715 q 653 708 643 713 q 694 684 664 704 q 752 639 725 664 q 812 567 779 614 q 867 464 844 519 q 794 350 839 403 q 717 275 749 297 l 686 253 l 810 172 q 717 52 786 101 m 674 453 q 567 456 624 456 q 449 453 511 456 q 394 294 439 419 q 511 310 458 294 q 593 350 564 326 q 667 436 653 397 l 674 453 m 582 144 q 567 158 578 150 q 512 180 557 167 q 406 193 467 193 q 342 81 379 133 q 472 98 413 82 q 557 129 532 114 l 582 144 z "},"C":{"ha":667,"x_min":60,"x_max":760,"o":"m 288 -56 q 60 114 119 11 q 150 447 60 267 q 353 686 240 628 q 458 681 400 686 q 722 714 613 689 l 760 722 q 671 332 704 539 q 460 481 549 386 q 331 136 353 324 l 700 235 q 673 159 700 207 q 607 76 646 111 q 484 2 568 40 q 288 -56 400 -36 z "},"D":{"ha":751,"x_min":107,"x_max":813,"o":"m 666 149 q 641 125 666 149 q 552 68 615 100 q 410 22 489 36 q 276 7 331 7 q 176 11 221 7 l 113 124 q 229 456 113 192 l 107 433 q 181 661 129 567 q 223 682 194 669 q 357 716 251 694 q 589 738 463 738 q 608 723 596 732 q 654 682 621 714 q 715 615 688 650 q 772 526 743 581 q 813 415 800 471 q 788 332 808 383 q 742 240 768 281 q 666 149 717 199 m 604 464 q 458 471 542 471 q 367 149 438 381 q 469 224 424 179 q 539 308 515 268 q 600 442 586 386 l 604 464 z "},"E":{"ha":704,"x_min":65,"x_max":771,"o":"m 333 450 q 358 401 333 419 q 422 375 383 382 q 565 363 503 363 q 689 368 628 363 q 670 326 689 353 q 625 283 651 300 q 544 251 599 265 q 433 236 490 236 q 343 240 376 236 l 328 167 q 403 160 332 160 q 560 176 474 160 q 694 208 647 192 l 742 225 q 621 49 729 132 q 349 -33 513 -33 q 161 24 242 -33 q 65 135 81 81 q 174 315 94 225 q 115 433 115 369 q 265 664 115 579 q 678 749 415 749 l 771 438 q 566 457 692 457 q 333 450 440 457 z "},"F":{"ha":681,"x_min":79,"x_max":776,"o":"m 111 463 q 155 588 126 531 q 204 669 183 646 l 225 694 l 776 732 l 736 375 q 471 433 649 408 q 411 282 443 353 q 683 299 603 288 l 714 303 q 681 248 710 282 q 615 190 653 214 q 504 147 578 167 q 336 122 431 126 q 231 -58 282 15 q 139 6 176 -31 q 90 64 101 42 l 79 85 q 197 460 111 251 l 111 463 z "},"G":{"ha":715,"x_min":65,"x_max":789,"o":"m 293 -28 q 65 142 125 39 q 156 475 65 294 q 358 714 246 656 q 469 707 418 714 q 750 742 642 715 l 789 750 q 700 360 733 567 q 579 431 643 385 q 475 522 515 476 q 336 164 358 357 l 519 213 q 533 315 522 263 q 764 289 629 289 q 656 -10 728 211 l 631 -83 q 535 51 567 -60 q 293 -28 435 -3 z "},"H":{"ha":718,"x_min":69,"x_max":789,"o":"m 485 304 q 507 528 500 415 q 514 674 514 640 q 514 714 514 708 l 513 778 q 789 694 669 694 q 681 150 768 396 q 649 72 661 96 l 636 49 q 531 31 586 49 q 444 -4 475 14 l 413 -22 q 465 185 442 63 q 328 129 388 164 l 307 -47 q 260 -32 289 -42 q 167 16 231 -22 q 69 100 103 54 q 108 370 81 244 q 158 550 136 496 l 182 604 q 428 679 257 654 q 349 274 379 479 q 485 304 425 281 z "},"I":{"ha":347,"x_min":93,"x_max":435,"o":"m 176 718 q 435 675 272 692 q 338 259 372 443 q 299 6 303 75 l 294 -62 q 93 61 189 -31 q 122 384 101 219 q 160 633 143 549 l 176 718 z "},"J":{"ha":375,"x_min":-3,"x_max":439,"o":"m 168 757 q 313 712 244 728 q 410 694 381 696 l 439 693 q 414 405 429 521 q 368 183 399 289 q 292 14 338 76 q -3 -129 190 -118 q 16 -108 4 -122 q 57 -26 28 -93 q 108 130 86 40 q 149 386 131 219 q 168 757 168 553 z "},"K":{"ha":792,"x_min":63,"x_max":872,"o":"m 813 747 q 872 571 872 650 q 826 461 872 522 q 714 375 799 425 q 644 333 690 360 q 574 292 597 306 q 691 188 631 235 q 783 121 751 140 l 815 101 q 780 69 808 90 q 722 33 751 47 q 542 -17 649 -6 q 417 130 475 46 q 336 276 360 214 q 272 13 289 129 l 267 -26 q 229 -10 253 -21 q 151 46 206 1 q 63 144 96 90 q 126 423 83 286 q 200 625 168 560 l 233 692 q 387 734 308 719 q 507 750 465 749 l 549 750 q 441 558 494 678 q 379 333 388 439 q 544 509 436 406 q 733 681 653 613 l 813 747 z "},"L":{"ha":511,"x_min":53,"x_max":544,"o":"m 53 26 q 156 483 156 446 q 150 611 156 561 l 147 628 q 187 650 160 636 q 316 690 214 664 q 543 726 418 717 q 349 221 446 532 q 460 233 411 221 q 526 256 508 244 l 544 268 l 489 -17 q 121 24 315 15 l 53 26 z "},"M":{"ha":861,"x_min":67,"x_max":929,"o":"m 485 722 q 475 529 475 576 q 482 344 475 388 l 488 307 l 665 769 q 929 672 782 701 q 894 394 924 549 q 839 149 865 240 l 813 57 q 575 -15 739 8 q 624 190 606 92 q 647 333 643 289 l 650 379 q 613 304 636 350 q 528 162 590 258 q 418 24 467 65 q 372 165 392 76 q 346 317 353 254 l 339 379 q 317 331 331 363 q 283 179 304 299 q 261 -81 261 60 q 217 -57 244 -72 q 138 4 190 -42 q 67 94 85 50 q 108 374 79 240 q 161 569 138 508 l 183 632 q 326 690 239 663 q 485 722 413 717 z "},"N":{"ha":761,"x_min":65,"x_max":828,"o":"m 531 239 q 578 686 578 507 q 578 711 578 700 l 575 764 q 828 675 724 699 q 780 337 811 503 q 725 92 749 171 l 703 13 q 504 -21 608 13 l 469 -32 l 353 388 q 267 -35 313 236 q 154 22 213 -15 q 65 94 96 58 q 113 364 81 229 q 172 567 146 499 l 197 633 q 446 690 303 672 l 531 239 z "},"O":{"ha":704,"x_min":78,"x_max":751,"o":"m 738 540 q 751 420 751 490 q 730 280 751 350 q 674 162 708 210 q 597 74 639 114 q 514 11 556 35 q 381 -50 424 -36 l 358 -56 q 167 44 239 -22 q 86 139 101 104 l 78 154 q 105 377 78 279 q 171 524 132 475 q 249 605 210 574 q 314 644 288 636 l 342 651 q 479 586 386 601 l 622 697 q 738 540 706 656 m 357 115 q 442 159 396 115 q 514 283 488 203 q 528 369 528 321 q 511 478 528 418 q 357 115 357 310 z "},"P":{"ha":750,"x_min":75,"x_max":836,"o":"m 133 619 q 153 631 140 624 q 209 658 165 639 q 300 692 253 676 q 575 729 426 729 q 644 683 601 717 q 718 618 686 650 q 785 535 750 586 q 836 429 819 483 q 676 220 799 296 q 350 138 553 144 q 303 -46 317 53 l 297 -78 q 182 -15 253 -61 q 75 72 111 31 l 167 443 q 136 592 147 511 l 133 619 m 382 261 q 485 277 439 261 q 558 317 532 293 q 628 403 613 364 l 633 419 q 552 434 610 428 q 440 440 494 440 q 374 261 400 344 l 382 261 z "},"Q":{"ha":739,"x_min":76,"x_max":757,"o":"m 750 453 q 524 42 750 189 q 757 89 631 68 l 700 -79 q 175 -129 439 -85 q 222 -80 179 -112 q 322 -22 265 -47 q 153 75 214 15 q 83 161 97 132 l 76 176 q 103 399 76 301 q 169 547 131 497 q 247 627 208 596 q 314 667 286 658 l 340 674 q 478 608 385 624 l 621 719 q 736 563 704 678 q 750 453 750 513 m 356 138 q 440 181 394 138 q 514 306 486 225 q 526 392 526 343 q 510 500 526 440 q 356 138 356 332 z "},"R":{"ha":767,"x_min":83,"x_max":835,"o":"m 178 431 l 128 608 q 256 675 188 653 q 551 722 401 722 q 619 694 574 718 q 699 641 665 669 q 772 559 733 613 q 835 440 811 506 q 734 269 817 331 q 544 189 651 208 q 653 131 594 157 q 746 97 713 106 l 779 88 q 759 60 772 76 q 694 6 746 43 q 578 -50 642 -32 q 403 100 475 -11 q 374 144 388 122 q 358 169 361 165 l 265 -53 l 250 -44 q 119 56 178 -8 q 83 108 96 82 l 178 431 m 625 421 q 489 440 578 440 q 457 439 474 440 l 385 261 q 492 279 444 263 q 563 319 539 296 q 621 406 611 365 l 625 421 z "},"S":{"ha":681,"x_min":53,"x_max":728,"o":"m 718 242 q 589 66 718 140 q 179 -37 460 -8 q 149 -4 169 -31 q 113 47 128 22 q 53 203 72 114 l 183 183 q 296 176 247 176 q 450 244 450 176 q 182 297 261 261 q 103 422 103 332 q 260 633 103 554 q 685 713 417 713 l 728 417 q 333 465 583 458 q 431 400 363 424 q 560 368 499 376 q 670 329 622 360 q 718 242 718 299 z "},"T":{"ha":603,"x_min":76,"x_max":724,"o":"m 160 694 q 486 654 300 654 q 724 669 613 654 q 668 413 678 593 l 496 407 q 442 -44 456 188 q 214 11 285 -22 l 189 24 l 289 401 l 76 396 q 132 513 111 439 q 156 642 153 588 l 160 694 z "},"U":{"ha":732,"x_min":81,"x_max":806,"o":"m 671 0 q 492 96 528 0 q 374 28 449 51 q 240 4 300 4 q 97 13 140 4 l 82 15 q 81 53 81 33 q 81 106 81 74 q 106 290 82 138 q 176 603 129 443 q 329 658 235 632 q 497 686 424 685 q 458 613 482 660 q 390 429 435 565 q 332 169 344 293 l 474 219 q 493 431 475 336 q 528 563 511 526 l 546 599 q 806 557 651 557 q 719 260 744 390 q 694 98 694 131 q 694 58 694 65 l 699 3 q 671 0 688 0 z "},"V":{"ha":714,"x_min":124,"x_max":782,"o":"m 171 151 q 156 200 171 151 q 133 332 140 250 q 124 453 125 414 q 124 524 124 492 q 129 592 124 557 l 135 632 q 177 654 150 640 q 290 694 204 668 q 463 728 375 721 q 383 353 383 549 q 410 149 383 236 q 505 371 465 244 q 556 575 544 497 l 568 654 q 736 569 665 635 q 782 510 765 542 q 767 423 782 481 q 732 319 751 365 q 672 213 713 272 q 577 106 631 153 q 440 22 524 60 q 253 -32 356 -17 q 171 151 201 51 z "},"W":{"ha":931,"x_min":114,"x_max":982,"o":"m 471 350 q 463 508 463 436 l 463 533 q 635 603 519 567 q 654 219 635 317 l 661 185 q 740 546 740 350 q 729 697 740 619 l 972 619 q 981 507 981 561 q 900 192 981 336 q 606 -39 792 3 q 545 61 576 -8 q 504 185 514 131 q 388 49 453 108 q 283 -33 322 -11 l 244 -54 q 156 110 188 15 q 119 279 124 206 q 114 392 114 353 q 125 572 114 514 l 133 618 q 182 642 151 628 q 297 681 213 657 q 456 704 382 704 q 374 304 374 494 q 379 208 374 256 q 471 350 451 292 z "},"X":{"ha":751,"x_min":60,"x_max":814,"o":"m 271 -49 l 60 96 q 131 215 89 164 q 199 286 172 267 q 272 335 225 306 q 228 405 249 382 q 192 442 207 428 q 164 465 178 456 q 137 481 150 474 q 113 494 124 489 q 94 501 103 499 q 79 507 86 504 l 344 742 q 439 333 439 628 q 527 476 492 372 q 572 665 563 581 l 582 750 l 814 568 q 759 420 814 504 q 626 299 704 336 q 676 175 638 238 q 747 81 714 113 l 779 49 q 515 -69 657 26 q 439 225 453 75 q 271 -49 368 225 z "},"Y":{"ha":690,"x_min":49,"x_max":774,"o":"m 265 736 q 390 338 390 581 q 386 263 390 301 q 475 380 439 311 q 524 511 511 449 q 546 662 546 618 q 544 717 546 706 l 542 750 l 774 568 q 532 246 774 336 l 503 -7 l 156 -60 q 215 84 189 -4 q 240 236 240 172 q 221 344 240 300 q 172 411 201 388 q 68 468 117 457 l 49 472 q 178 606 124 540 q 249 704 232 672 l 265 736 z "},"Z":{"ha":693,"x_min":68,"x_max":756,"o":"m 672 24 q 454 33 526 33 q 143 19 249 33 l 68 8 l 392 432 q 226 405 299 431 q 126 354 153 379 l 100 329 q 134 535 106 438 q 189 675 163 632 l 214 718 q 274 695 228 710 q 376 675 319 681 q 578 665 494 665 q 756 675 661 665 l 454 222 q 595 258 526 228 q 696 314 664 288 l 728 342 q 672 24 672 140 z "},"[":{"ha":400,"x_min":56,"x_max":471,"o":"m 157 633 q 471 681 289 671 l 449 483 l 325 517 l 276 104 l 414 78 q 306 -44 364 17 l 286 -64 q 56 49 164 -31 q 118 284 93 138 q 150 532 143 431 l 157 633 z "},"\\":{"ha":656,"x_min":147,"x_max":650,"o":"m 147 693 q 189 692 163 692 q 260 701 215 692 q 328 724 304 711 l 353 736 q 650 32 463 456 q 503 -69 565 -14 l 483 -86 l 147 693 z "},"]":{"ha":400,"x_min":57,"x_max":472,"o":"m 371 25 q 57 -22 239 -12 l 79 175 l 203 142 l 251 554 l 114 581 q 222 703 164 642 l 242 722 q 472 610 364 689 q 410 374 435 521 q 378 126 385 228 l 371 25 z "},"^":{"ha":622,"x_min":118,"x_max":454,"o":"m 391 893 q 407 878 391 893 q 435 831 424 863 q 451 775 447 799 q 454 740 454 751 q 453 719 454 728 l 450 701 l 313 807 q 118 722 218 735 l 308 940 q 391 893 358 924 z "},"_":{"ha":486,"x_min":-25,"x_max":467,"o":"m 449 22 l 467 -115 l -25 -151 l 21 -15 q 449 22 396 -14 z "},"`":{"ha":624,"x_min":125,"x_max":499,"o":"m 499 871 q 265 810 364 810 q 139 828 176 810 l 125 835 l 168 1018 l 499 871 z "},"a":{"ha":619,"x_min":60,"x_max":668,"o":"m 583 232 q 611 28 583 115 l 490 -28 q 385 86 403 -7 q 305 15 349 44 q 232 -14 261 -14 q 113 44 167 -14 q 60 156 60 103 q 82 267 60 208 q 144 381 104 326 q 253 472 185 436 q 386 507 321 507 q 481 486 451 507 l 517 558 q 603 509 565 540 q 654 456 640 478 l 668 433 q 599 278 647 354 l 583 253 q 583 232 583 242 m 261 124 q 385 192 319 124 q 457 432 401 304 q 299 281 351 374 q 256 149 256 204 q 258 124 256 136 q 261 124 260 124 z "},"b":{"ha":631,"x_min":61,"x_max":686,"o":"m 61 100 l 178 697 q 417 758 319 742 l 451 765 q 313 340 368 531 q 408 453 357 403 q 486 521 458 503 l 514 539 q 549 524 528 533 q 617 476 571 514 q 686 392 664 438 q 542 126 671 251 q 236 -31 414 0 l 61 100 m 450 379 q 276 199 417 379 q 264 124 264 149 q 275 97 264 99 q 365 168 314 97 q 437 294 415 239 q 458 365 458 350 q 450 379 458 379 z "},"c":{"ha":547,"x_min":47,"x_max":603,"o":"m 553 522 l 601 551 q 603 478 603 526 q 533 257 603 367 q 346 347 424 288 q 290 119 293 257 q 500 178 326 119 l 557 197 q 541 135 557 172 q 499 69 525 99 q 413 8 472 40 q 271 -43 353 -25 q 146 2 215 -35 q 47 83 76 39 q 81 251 57 174 q 133 375 106 328 q 233 500 193 471 l 250 514 q 411 482 332 482 q 553 522 490 482 z "},"d":{"ha":642,"x_min":63,"x_max":772,"o":"m 257 -33 q 114 58 165 -11 q 63 192 63 128 q 102 324 63 256 q 215 448 142 393 q 365 503 288 503 q 439 435 406 503 l 488 694 q 736 742 626 714 l 772 750 q 649 367 744 629 l 615 275 l 624 1 q 587 3 610 1 q 512 27 564 6 q 429 89 460 49 q 279 -21 346 17 l 257 -33 m 251 75 q 408 203 319 106 l 429 369 q 303 242 356 346 q 251 75 251 139 z "},"e":{"ha":561,"x_min":50,"x_max":600,"o":"m 269 108 q 317 107 285 107 q 414 123 349 107 q 522 158 479 139 l 564 179 q 567 153 567 165 q 519 44 567 99 q 315 -53 458 -24 q 262 -43 294 -50 q 158 -1 229 -36 q 50 85 86 35 q 88 267 57 174 q 147 410 119 361 l 175 458 q 329 483 253 463 q 442 522 406 504 l 479 542 q 560 463 531 513 q 594 378 590 413 l 600 342 q 469 207 561 254 q 278 153 378 160 q 269 108 274 135 m 396 285 q 414 331 414 313 q 402 359 414 349 q 374 369 390 369 q 342 367 357 369 q 292 215 332 332 q 396 285 357 225 z "},"f":{"ha":461,"x_min":49,"x_max":556,"o":"m 188 435 q 149 528 149 468 q 180 635 149 588 q 267 708 211 683 q 507 751 365 751 q 522 610 510 671 q 544 528 535 549 l 556 506 q 294 531 444 531 q 333 467 294 492 q 482 442 371 442 q 542 443 510 442 l 482 269 l 379 268 q 307 -97 342 174 q 106 60 169 -24 l 149 296 l 49 340 q 188 435 114 388 z "},"g":{"ha":636,"x_min":58,"x_max":706,"o":"m 58 -17 q 203 -40 100 -40 q 368 27 306 -40 q 449 190 431 94 q 365 94 414 136 q 283 36 315 51 l 250 21 q 118 92 171 35 q 63 192 63 150 q 81 285 63 235 q 134 387 99 335 q 229 476 169 439 q 358 513 289 513 q 461 475 421 513 q 513 403 496 442 q 324 308 386 388 q 261 149 261 228 q 261 132 261 140 q 302 161 268 135 q 360 211 336 188 q 464 346 419 269 l 517 576 q 631 542 583 568 q 692 493 678 515 l 706 471 q 680 369 699 418 q 644 299 661 321 l 629 276 q 511 -81 626 50 q 188 -211 396 -211 q 138 -164 164 -200 q 58 -17 86 -96 z "},"h":{"ha":619,"x_min":82,"x_max":672,"o":"m 511 524 q 672 339 593 524 q 572 96 606 250 q 557 -24 558 36 l 549 -24 q 406 75 439 -24 q 393 149 393 111 q 432 349 393 231 q 254 92 339 268 q 243 -10 249 60 q 125 36 164 7 q 82 79 89 63 q 108 367 85 207 q 151 623 131 526 q 175 721 172 719 q 310 753 242 742 q 414 767 379 765 l 449 767 q 299 319 360 568 q 408 469 351 414 q 511 524 464 524 z "},"i":{"ha":325,"x_min":79,"x_max":449,"o":"m 357 361 q 343 332 357 361 q 313 251 329 303 q 283 122 296 199 q 269 3 269 44 q 269 -44 269 -37 q 158 15 206 -15 q 94 63 111 46 l 79 79 q 94 314 79 206 q 125 467 110 422 l 140 513 q 364 449 265 490 l 397 435 q 357 361 385 419 m 350 503 q 308 524 333 510 q 230 585 282 538 q 158 685 178 632 q 224 727 193 700 q 269 772 256 754 l 283 792 q 428 747 368 778 l 449 736 q 441 690 446 718 q 410 599 436 663 q 350 503 385 536 z "},"j":{"ha":322,"x_min":-19,"x_max":439,"o":"m 282 114 q 269 -3 269 38 q 269 -53 269 -44 q 143 -138 215 -103 q 25 -183 71 -174 l -19 -194 q 67 73 29 -104 q 119 381 106 250 l 133 513 q 357 449 258 490 l 390 435 q 282 114 315 324 m 439 679 l 378 508 q 331 519 365 508 q 272 543 297 531 q 165 636 207 574 q 224 722 192 685 q 275 772 256 760 l 293 786 q 417 692 353 726 l 439 679 z "},"k":{"ha":635,"x_min":44,"x_max":701,"o":"m 503 744 q 315 281 407 568 q 547 561 458 339 q 562 551 553 557 q 594 525 571 544 q 636 486 618 506 q 701 386 689 432 q 665 337 693 371 q 609 279 638 303 q 532 231 581 256 q 429 193 483 206 q 640 125 526 139 q 618 80 636 107 q 580 33 600 53 q 522 -8 560 13 q 438 -39 483 -29 q 278 158 356 40 l 225 -39 q 126 -3 179 -29 q 44 54 72 24 q 174 592 113 363 l 194 669 q 349 717 272 699 q 464 740 426 736 l 503 744 z "},"l":{"ha":321,"x_min":65,"x_max":467,"o":"m 283 -24 l 283 -68 q 65 67 131 -6 q 105 338 76 189 q 156 574 133 486 l 178 661 q 313 723 240 699 q 425 753 385 747 l 467 758 q 374 513 413 642 q 318 286 335 385 q 283 -24 283 79 z "},"m":{"ha":915,"x_min":68,"x_max":958,"o":"m 368 1 q 421 303 421 190 q 419 319 421 313 l 417 349 q 279 142 336 279 q 268 -19 271 42 l 68 31 q 114 439 107 289 l 117 494 l 321 542 l 288 343 q 411 473 339 431 q 547 515 483 515 q 600 364 586 457 q 701 479 646 435 q 797 524 757 524 q 958 339 879 524 q 907 187 933 296 q 875 -29 881 78 q 674 47 733 -10 q 721 311 721 219 q 721 324 721 318 l 718 349 q 608 228 663 313 q 578 21 594 165 q 407 0 517 0 q 368 1 388 0 z "},"n":{"ha":625,"x_min":82,"x_max":672,"o":"m 388 47 q 435 311 435 219 q 435 324 435 318 l 432 349 q 275 135 353 281 q 261 -4 268 85 q 163 29 207 8 q 100 64 118 50 l 82 79 q 114 440 90 278 l 121 494 l 363 547 q 308 336 335 472 q 413 474 358 424 q 511 524 467 524 q 672 339 593 524 q 647 284 663 319 q 606 147 632 249 q 576 -50 579 44 q 388 47 447 -10 z "},"o":{"ha":572,"x_min":63,"x_max":611,"o":"m 474 586 q 574 494 536 558 q 611 340 611 429 q 565 179 611 250 q 455 71 518 108 q 340 13 392 33 q 265 -7 288 -7 q 155 62 206 22 q 83 126 104 101 l 63 151 q 85 299 64 231 q 136 411 107 368 q 246 528 199 499 l 267 542 q 385 503 326 525 l 474 586 m 464 315 l 386 381 q 286 124 296 257 q 301 127 292 125 q 335 142 310 129 q 382 173 360 154 q 428 229 404 192 q 464 315 451 267 z "},"p":{"ha":606,"x_min":25,"x_max":657,"o":"m 372 565 q 318 374 346 493 q 529 526 406 488 l 657 404 q 568 147 643 256 q 381 -4 493 39 q 268 47 324 15 q 260 -140 260 -42 q 25 -162 163 -162 q 100 272 49 61 l 118 346 l 125 493 q 227 535 165 517 q 331 558 289 553 l 372 565 m 419 244 q 435 299 431 275 q 440 333 440 322 q 425 372 440 371 l 289 217 q 276 126 281 172 l 353 138 q 419 244 393 169 z "},"q":{"ha":650,"x_min":64,"x_max":715,"o":"m 224 -19 q 113 55 163 -19 q 64 192 64 129 q 103 324 64 256 q 216 448 143 393 q 367 503 289 503 q 454 406 414 503 l 481 503 q 568 520 533 519 q 630 521 603 521 q 683 515 657 521 l 715 508 q 648 253 682 428 q 597 -57 614 78 l 579 -192 q 472 -154 528 -182 q 385 -93 417 -126 q 394 75 385 -22 q 288 6 336 31 q 224 -19 239 -19 m 417 231 q 446 374 431 308 q 343 307 392 365 q 271 188 294 249 q 247 89 247 126 q 417 231 335 136 z "},"r":{"ha":540,"x_min":67,"x_max":601,"o":"m 601 401 q 568 308 581 369 q 556 210 556 247 q 557 149 556 172 q 458 181 501 157 q 397 226 414 206 l 382 247 q 282 114 304 157 q 279 -18 279 31 q 176 17 229 -7 q 94 60 124 42 l 67 78 q 136 483 90 279 l 151 554 q 255 524 208 542 q 319 494 301 506 l 336 482 q 292 239 308 399 q 432 532 325 317 l 601 401 z "},"s":{"ha":547,"x_min":49,"x_max":579,"o":"m 563 188 q 460 46 563 107 q 144 -37 357 -15 q 49 190 75 60 q 79 183 49 190 q 235 157 181 157 q 324 165 290 157 q 368 196 358 172 q 178 223 204 211 q 133 247 153 235 q 101 321 101 268 q 131 418 101 374 q 208 489 161 463 q 315 533 254 515 q 546 563 421 563 l 579 325 q 260 365 453 360 q 424 292 279 314 q 519 259 476 285 q 563 188 563 233 z "},"t":{"ha":442,"x_min":76,"x_max":535,"o":"m 342 332 q 310 22 310 163 q 311 -25 310 -3 q 181 32 250 -6 q 85 107 113 69 q 153 315 118 249 l 164 339 q 94 411 144 375 l 76 424 q 190 483 104 444 q 242 616 214 557 q 285 697 269 675 l 300 719 l 389 539 l 535 553 l 474 285 l 342 332 z "},"u":{"ha":636,"x_min":81,"x_max":689,"o":"m 88 61 q 82 181 82 129 q 111 411 82 324 l 129 460 q 231 500 156 482 q 388 518 307 518 q 356 456 375 496 q 310 315 336 417 q 285 132 285 214 q 286 92 285 111 q 326 126 300 96 q 372 193 353 156 q 461 467 428 294 q 689 418 569 418 q 625 198 650 311 q 594 25 600 85 l 590 -35 q 505 22 551 -21 q 436 111 458 64 q 404 67 429 97 q 357 18 379 38 q 232 -44 297 -33 l 88 61 z "},"v":{"ha":585,"x_min":97,"x_max":649,"o":"m 382 567 q 314 313 314 454 q 316 248 314 294 q 340 124 318 201 q 424 285 390 196 q 465 426 457 374 l 474 479 q 567 449 513 475 q 649 390 621 422 q 638 328 649 369 q 613 252 628 286 q 567 174 599 218 q 492 96 535 131 q 381 31 450 61 q 228 -11 313 1 q 142 111 174 43 q 104 236 111 179 q 97 319 97 293 q 106 433 97 399 l 111 463 q 142 488 122 472 q 233 533 163 504 q 382 567 303 561 z "},"w":{"ha":850,"x_min":101,"x_max":908,"o":"m 399 590 q 328 285 328 440 q 335 221 328 246 l 347 171 q 442 288 429 253 q 426 411 431 354 l 425 429 q 601 504 496 476 q 592 375 592 419 q 613 194 592 251 l 626 158 q 701 447 701 304 q 688 568 701 507 l 908 493 q 600 -25 888 61 q 527 49 560 -7 q 479 158 494 106 q 365 49 424 96 q 278 -12 307 3 l 247 -28 q 153 85 189 15 q 110 224 118 156 q 101 356 101 293 q 108 457 101 418 l 115 496 q 244 560 157 529 q 399 590 331 590 z "},"x":{"ha":625,"x_min":38,"x_max":665,"o":"m 471 481 l 471 533 l 665 411 q 515 196 665 288 q 557 106 526 149 q 613 43 588 63 l 638 24 q 421 -69 575 -31 q 356 156 379 -26 q 346 157 351 157 l 311 138 q 272 75 289 113 q 241 -2 256 38 q 221 -54 226 -42 l 38 57 q 99 149 64 110 q 158 203 135 188 q 221 239 182 218 q 158 322 196 288 q 93 367 119 357 l 67 378 l 283 550 q 367 233 367 464 q 444 354 418 279 q 471 481 471 429 z "},"y":{"ha":596,"x_min":99,"x_max":656,"o":"m 379 567 q 311 313 311 454 q 313 248 311 294 q 338 124 315 201 q 409 281 379 188 q 449 435 439 374 l 458 496 q 656 376 592 449 q 619 304 642 350 q 551 123 596 258 q 489 -137 506 -12 q 358 -176 431 -165 q 256 -186 285 -186 q 219 -186 228 -186 l 168 -183 q 270 -87 225 -149 q 332 19 315 -25 l 349 64 l 211 -12 q 140 94 167 31 q 99 353 99 196 q 103 428 99 399 l 108 463 q 140 488 119 472 q 230 533 160 504 q 379 567 300 561 z "},"z":{"ha":588,"x_min":39,"x_max":635,"o":"m 560 -8 q 239 21 431 21 q 117 17 167 21 l 39 8 l 313 335 q 181 308 238 328 q 103 272 124 289 l 83 257 q 117 420 88 342 q 172 536 146 499 l 199 572 q 240 550 207 564 q 318 531 272 536 q 490 518 418 518 q 635 525 561 518 l 375 181 q 497 209 438 185 q 583 256 556 233 l 611 278 q 560 -8 560 82 z "},"{":{"ha":433,"x_min":64,"x_max":501,"o":"m 447 -1 q 351 -42 415 -42 q 251 -14 286 -42 q 199 56 217 14 q 165 142 181 99 q 64 279 126 254 q 169 456 135 313 q 203 568 183 511 q 269 669 222 625 q 393 726 317 713 q 437 656 410 688 q 483 611 464 624 l 501 599 q 351 467 400 536 q 264 289 301 397 q 322 142 314 282 q 356 44 326 89 q 447 -1 386 0 z "},"|":{"ha":321,"x_min":101,"x_max":410,"o":"m 101 -46 q 193 925 193 613 q 410 882 247 899 q 310 388 347 650 q 267 -22 274 125 l 261 -169 q 101 -46 197 -137 z "},"}":{"ha":433,"x_min":63,"x_max":500,"o":"m 117 658 q 213 699 149 699 q 313 671 278 699 q 365 601 347 643 q 399 514 383 558 q 500 378 438 403 q 394 203 429 344 q 361 89 381 146 q 294 -12 342 32 q 171 -69 247 -56 q 127 1 154 -31 q 81 46 100 33 l 63 58 q 213 190 164 121 q 300 368 263 260 q 242 517 250 375 q 208 613 238 568 q 117 658 178 657 z "},"~":{"ha":700,"x_min":100,"x_max":756,"o":"m 174 498 q 188 489 174 498 q 229 467 201 479 q 296 450 257 456 q 360 444 335 444 q 407 446 386 444 q 442 478 419 458 q 528 530 465 497 q 644 563 590 563 q 725 536 699 563 q 756 467 756 507 q 735 335 756 390 l 725 308 q 569 372 678 356 q 507 378 532 378 q 474 378 482 378 q 372 306 440 340 q 241 271 303 271 q 142 298 179 271 q 103 363 106 325 q 101 394 101 375 q 125 503 101 451 l 138 531 q 174 498 147 517 z "},"¡":{"ha":351,"x_min":47,"x_max":399,"o":"m 126 644 q 232 697 171 679 q 324 714 293 714 q 381 708 356 714 q 398 621 397 653 q 399 561 399 589 q 392 506 399 533 l 383 474 q 214 482 293 474 l 188 485 l 126 644 m 299 381 q 306 373 299 381 q 328 331 314 364 q 347 268 343 297 q 350 213 350 239 q 314 4 350 122 q 201 -34 283 -15 q 47 -53 119 -53 q 63 -34 53 -46 q 98 22 72 -22 q 146 118 124 67 q 228 429 204 251 q 239 426 232 428 q 265 411 246 424 q 299 381 283 399 z "},"¢":{"ha":589,"x_min":68,"x_max":661,"o":"m 363 744 q 356 746 363 744 q 337 760 350 749 q 318 789 324 772 q 313 819 313 806 q 326 910 313 864 l 513 949 q 418 738 447 860 q 410 737 415 738 q 390 738 404 736 q 363 744 375 739 m 300 21 q 406 -74 406 21 q 393 -151 406 -107 l 221 -190 q 300 21 272 -101 m 285 675 q 385 669 339 669 q 606 697 504 669 l 661 714 q 589 399 661 513 q 401 485 485 421 q 328 251 329 363 q 564 308 371 251 l 631 328 q 630 306 631 319 q 613 256 629 293 q 567 189 597 219 q 469 126 538 158 q 307 78 401 93 q 174 126 249 86 q 68 213 99 165 q 105 392 79 308 q 161 525 131 475 q 267 660 224 628 l 285 674 l 285 675 z "},"£":{"ha":708,"x_min":90,"x_max":760,"o":"m 629 -17 q 333 10 533 10 q 214 6 268 10 l 126 0 q 207 267 188 122 l 135 257 q 90 363 118 324 q 213 382 129 372 q 311 696 218 613 q 531 769 394 769 q 643 749 596 769 q 711 697 690 728 q 758 585 756 636 l 760 564 q 678 567 722 567 q 583 552 633 567 q 508 503 533 538 q 461 399 483 468 q 644 401 572 401 l 650 325 l 432 296 q 399 192 419 247 q 571 214 486 192 q 697 258 656 236 l 738 279 l 629 -17 z "},"¤":{"ha":924,"x_min":126,"x_max":953,"o":"m 657 51 q 533 28 604 28 q 424 47 463 28 l 322 -110 l 174 10 l 281 136 q 224 301 224 203 q 253 467 224 400 l 126 581 q 142 608 132 592 q 192 663 153 625 q 279 724 232 701 l 367 601 q 545 650 447 650 q 715 610 643 650 l 807 729 l 953 599 q 911 540 940 572 q 860 489 882 508 l 838 471 q 858 367 858 436 q 843 248 858 297 q 814 178 828 199 l 799 156 l 907 40 q 849 -27 892 10 q 756 -86 806 -64 l 657 51 m 378 311 q 439 214 378 246 q 527 188 483 188 q 608 203 571 188 q 700 317 700 235 q 647 399 700 369 q 574 419 608 419 q 385 357 458 419 q 378 311 378 332 z "},"¥":{"ha":765,"x_min":106,"x_max":831,"o":"m 282 121 q 139 96 163 113 l 128 231 l 297 231 l 297 243 q 278 344 297 300 q 231 411 258 388 q 125 468 174 457 l 106 472 q 235 606 181 540 q 306 704 289 672 l 322 736 q 447 338 447 581 q 443 263 447 301 q 532 380 496 311 q 581 511 568 449 q 603 662 603 618 q 601 717 603 706 l 599 750 l 831 568 q 589 246 831 336 l 586 231 l 744 231 l 714 133 q 575 132 618 133 l 560 -7 l 213 -60 q 282 121 257 18 z "},"¦":{"ha":350,"x_min":101,"x_max":438,"o":"m 343 322 q 306 -110 311 83 l 303 -169 q 101 -46 197 -137 q 154 379 129 150 q 231 340 175 358 q 343 322 286 322 m 164 478 q 193 925 193 763 q 438 882 275 899 q 349 426 393 717 q 164 478 276 478 z "},"§":{"ha":574,"x_min":69,"x_max":600,"o":"m 554 68 q 461 -51 554 1 q 168 -118 368 -104 q 147 -98 160 -111 q 108 -36 135 -85 q 69 69 82 13 q 156 49 97 60 q 263 36 224 36 q 340 49 301 36 q 393 92 378 61 q 158 133 238 106 q 78 219 78 160 q 150 315 78 279 q 110 401 110 344 q 233 567 110 504 q 567 629 356 629 l 600 397 q 290 435 486 431 q 367 384 314 403 q 469 359 421 365 q 555 328 517 353 q 593 260 593 304 q 490 157 593 190 q 554 68 554 121 m 382 263 q 258 278 297 269 q 340 214 274 240 q 382 263 382 226 z "},"¨":{"ha":701,"x_min":82,"x_max":617,"o":"m 210 986 q 237 986 210 986 q 292 942 264 986 q 324 853 321 897 l 326 810 l 215 750 q 149 781 182 750 q 99 844 115 813 l 82 875 q 85 887 83 879 q 98 914 88 894 q 122 947 108 933 q 210 986 156 986 m 561 810 q 543 800 561 810 q 483 790 525 790 q 409 819 442 790 q 369 875 376 847 l 361 903 l 504 1031 q 578 965 550 1010 q 611 886 606 921 l 617 853 q 561 810 597 829 z "},"©":{"ha":938,"x_min":81,"x_max":996,"o":"m 850 388 q 783 553 850 490 q 599 615 717 615 q 317 507 414 615 q 219 217 219 399 q 292 29 219 93 q 502 -35 365 -35 q 760 28 639 -35 q 629 -95 717 -47 q 415 -143 542 -143 q 100 47 164 -143 q 81 181 81 106 q 130 440 81 324 q 260 625 179 556 q 629 768 425 768 q 901 680 807 768 q 996 449 996 592 q 907 192 996 307 q 719 78 818 78 q 836 283 804 163 q 850 388 850 335 m 468 492 q 560 486 526 486 q 694 500 650 486 l 721 508 q 668 290 721 382 q 550 399 606 351 q 505 285 528 356 q 481 175 482 214 q 664 228 503 175 l 715 246 q 690 197 711 231 q 644 139 668 163 q 483 57 581 78 q 321 161 421 108 q 367 342 331 260 q 436 458 404 425 l 468 492 z "},"ª":{"ha":501,"x_min":128,"x_max":621,"o":"m 551 617 q 575 446 551 519 l 476 401 q 392 493 406 418 q 326 435 361 458 q 267 413 292 413 q 171 460 214 413 q 128 550 128 507 q 146 641 128 593 q 197 733 164 689 q 284 806 229 776 q 392 835 339 835 q 468 818 444 835 l 499 876 q 568 835 538 861 q 610 792 599 810 l 621 775 q 564 647 601 708 l 551 628 q 551 617 551 622 m 292 524 q 392 579 339 524 q 450 774 404 674 q 325 658 364 726 q 286 546 286 590 q 289 524 286 535 q 292 524 290 524 z "},"«":{"ha":928,"x_min":94,"x_max":983,"o":"m 94 414 q 274 556 188 481 q 400 672 361 631 l 440 714 q 494 631 460 667 q 554 581 529 594 l 579 568 l 290 394 q 396 300 332 343 q 503 239 460 257 l 546 222 q 318 129 450 150 q 125 374 240 222 l 94 414 m 499 414 q 678 556 592 481 q 806 672 765 631 l 844 714 q 899 631 864 667 q 958 581 933 594 l 983 568 l 694 394 q 800 300 736 343 q 907 239 864 257 l 950 222 q 722 129 854 150 q 529 374 644 222 l 499 414 z "},"¬":{"ha":761,"x_min":94,"x_max":817,"o":"m 94 390 l 138 543 l 817 546 l 681 -67 q 535 13 603 -46 q 599 174 564 65 q 660 410 635 282 q 154 394 333 410 l 94 390 z "},"­":{"ha":611,"x_min":64,"x_max":651,"o":"m 111 367 l 651 367 q 599 218 644 331 q 161 203 456 218 l 64 199 l 111 367 z "},"®":{"ha":939,"x_min":82,"x_max":997,"o":"m 851 388 q 785 553 851 490 q 600 615 718 615 q 318 507 415 615 q 221 217 221 399 q 294 29 221 93 q 503 -35 367 -35 q 761 28 640 -35 q 631 -95 718 -47 q 417 -143 543 -143 q 101 47 165 -143 q 82 181 82 106 q 131 440 82 324 q 261 625 181 556 q 631 768 426 768 q 903 680 808 768 q 997 449 997 592 q 908 192 997 307 q 721 78 819 78 q 838 283 806 163 q 851 388 851 335 m 392 349 l 346 446 q 374 467 356 454 q 455 503 393 481 q 583 525 517 525 q 724 429 668 504 q 760 358 747 397 q 586 240 717 261 q 650 193 614 210 q 708 175 686 176 l 731 174 q 618 75 694 100 q 564 117 581 94 q 541 147 547 139 q 526 171 535 156 q 513 192 517 186 q 502 214 510 199 q 493 231 494 229 l 467 79 q 350 176 375 119 l 392 349 m 476 282 q 515 282 486 282 q 581 295 544 282 q 628 325 618 308 l 636 340 q 467 354 585 354 l 476 282 z "},"¯":{"ha":574,"x_min":15,"x_max":553,"o":"m 553 986 l 550 874 l 15 854 l 63 1011 q 553 986 126 986 z "},"°":{"ha":386,"x_min":125,"x_max":475,"o":"m 125 540 q 175 678 125 622 q 308 733 225 733 q 433 690 390 733 q 475 567 475 646 q 422 437 475 489 q 289 385 368 385 q 207 402 242 385 q 156 447 172 419 q 125 540 125 496 m 235 576 q 233 549 233 567 q 251 512 233 531 q 300 493 268 493 q 365 551 365 493 q 313 600 365 600 q 235 576 261 600 z "},"±":{"ha":608,"x_min":57,"x_max":651,"o":"m 108 435 q 144 496 108 464 q 269 535 181 528 l 294 660 q 403 683 344 675 q 492 692 461 692 q 549 686 522 692 l 506 560 l 651 565 q 595 419 639 461 q 449 376 551 376 q 442 376 444 376 l 367 176 q 226 257 286 194 l 240 386 l 113 415 q 108 435 108 425 m 57 -3 l 90 154 q 421 162 289 154 q 586 178 553 169 l 618 186 l 579 39 q 135 8 368 39 l 57 -3 z "},"²":{"ha":456,"x_min":110,"x_max":515,"o":"m 367 779 q 480 746 446 779 q 514 665 514 713 q 481 572 514 610 q 460 547 467 556 q 432 522 453 539 q 406 500 411 506 q 342 456 378 479 q 493 483 424 456 l 515 493 q 499 315 499 421 q 110 354 347 354 q 340 578 329 504 q 291 617 343 617 q 199 599 239 618 q 142 561 160 581 l 124 542 q 367 779 178 779 z "},"³":{"ha":442,"x_min":104,"x_max":558,"o":"m 178 792 q 370 781 254 781 q 558 789 486 781 l 411 585 q 445 577 422 585 q 483 561 468 569 q 521 489 521 536 q 455 352 521 414 q 232 261 389 290 q 165 335 197 289 q 119 415 133 382 l 104 449 q 261 426 190 426 q 376 475 376 426 q 303 510 376 507 q 231 514 231 513 l 350 632 q 235 623 289 632 q 157 604 181 614 l 133 594 q 178 792 178 703 z "},"´":{"ha":624,"x_min":126,"x_max":499,"o":"m 499 835 q 282 789 376 789 q 126 836 178 789 l 456 1018 l 499 835 z "},"µ":{"ha":643,"x_min":0,"x_max":700,"o":"m 447 111 q 253 -40 354 4 q 278 -153 264 -107 l 283 -168 l 0 -168 q 97 74 63 -58 q 92 177 92 126 q 100 300 92 228 q 125 417 108 372 l 140 460 q 242 500 167 482 q 399 518 318 518 q 367 456 386 496 q 322 315 347 417 q 296 132 296 214 q 297 92 296 111 q 338 126 311 96 q 383 193 364 156 q 472 467 439 294 q 700 418 581 418 q 636 198 661 311 q 606 25 611 85 l 601 -35 q 516 22 563 -21 q 447 111 469 64 z "},"¶":{"ha":743,"x_min":96,"x_max":831,"o":"m 654 679 l 450 -143 q 322 -25 385 -94 l 396 232 q 278 165 310 165 q 179 238 225 196 q 114 306 133 279 l 96 332 q 122 490 97 414 q 181 614 146 565 q 307 751 250 711 l 331 768 q 571 675 471 758 l 654 679 m 831 719 l 640 -140 q 529 -54 592 -124 l 711 694 l 831 719 z "},"·":{"ha":325,"x_min":78,"x_max":385,"o":"m 78 392 l 242 558 q 337 474 301 531 q 378 374 372 417 l 385 331 l 239 253 q 156 288 196 253 q 97 357 115 322 l 78 392 z "},"¸":{"ha":743,"x_min":153,"x_max":526,"o":"m 436 135 q 431 86 431 104 q 432 46 431 68 q 468 -56 433 -22 q 518 -75 488 -75 q 526 -75 522 -75 q 467 -160 526 -122 q 319 -197 407 -197 q 172 -158 225 -197 q 153 -136 161 -149 q 343 4 343 -89 q 313 82 343 43 l 436 135 z "},"¹":{"ha":244,"x_min":129,"x_max":360,"o":"m 171 744 q 360 786 254 774 q 294 505 318 629 q 268 333 271 381 l 265 288 q 129 371 193 308 q 164 706 140 586 l 171 744 z "},"º":{"ha":447,"x_min":131,"x_max":558,"o":"m 451 878 q 528 806 499 857 q 558 692 558 756 q 534 581 558 629 q 474 504 510 533 q 400 454 439 475 q 289 415 325 415 q 203 469 243 439 q 147 519 164 500 l 131 539 q 149 654 132 600 q 189 742 165 708 q 275 833 235 810 l 290 843 q 382 813 339 831 l 451 878 m 443 667 l 383 718 q 306 517 313 618 q 340 528 315 517 q 381 556 364 540 q 443 667 424 593 z "},"»":{"ha":929,"x_min":104,"x_max":993,"o":"m 993 401 q 813 260 900 335 q 686 143 726 185 l 647 101 q 593 185 628 149 q 533 233 558 221 l 508 247 l 797 421 q 692 515 756 472 q 585 575 628 558 l 542 593 q 769 686 638 665 q 963 442 847 593 l 993 401 m 589 401 q 409 260 496 335 q 283 143 322 185 l 243 101 q 189 185 224 149 q 129 233 154 221 l 104 247 l 393 421 q 288 515 351 472 q 181 575 224 558 l 138 593 q 365 686 233 665 q 558 442 443 593 l 589 401 z "},"¼":{"ha":1057,"x_min":131,"x_max":1061,"o":"m 540 736 q 599 715 558 722 q 664 707 639 707 q 707 708 689 707 l 371 -71 q 243 32 342 -22 q 508 656 404 396 l 540 736 m 172 744 q 361 786 256 774 q 296 505 319 629 q 269 333 272 381 l 267 288 q 131 371 194 308 q 164 706 142 586 l 172 744 m 840 86 q 861 371 861 232 l 861 414 q 1022 347 954 388 q 976 103 1017 250 l 1061 113 l 1033 4 l 956 11 l 932 -104 l 775 -136 l 815 -1 l 558 -14 q 609 161 593 67 q 625 285 625 256 q 625 319 625 315 l 624 378 l 814 351 q 760 233 788 311 q 725 89 732 156 l 840 86 z "},"½":{"ha":986,"x_min":129,"x_max":978,"o":"m 539 736 q 597 715 557 722 q 663 707 638 707 q 706 708 688 707 l 369 -71 q 242 32 340 -22 q 506 656 403 396 l 539 736 m 829 426 q 942 393 908 426 q 976 313 976 360 q 943 219 976 257 q 922 194 929 203 q 894 169 915 186 q 867 147 874 153 q 804 103 840 126 q 956 131 886 103 l 978 140 q 961 -37 961 68 q 572 1 810 1 q 803 225 792 151 q 753 265 806 264 q 662 247 701 265 q 604 208 622 228 l 586 189 q 829 426 640 426 m 171 744 q 360 786 254 774 q 294 505 318 629 q 268 333 271 381 l 265 288 q 129 371 193 308 q 164 706 140 586 l 171 744 z "},"¾":{"ha":1256,"x_min":113,"x_max":1260,"o":"m 186 792 q 378 781 263 781 q 567 789 494 781 l 419 585 q 453 577 431 585 q 492 561 476 569 q 529 489 529 536 q 463 352 529 414 q 240 261 397 290 q 174 335 206 289 q 128 415 142 382 l 113 449 q 269 426 199 426 q 385 475 385 426 q 312 510 385 507 q 239 514 239 513 l 358 632 q 243 623 297 632 q 165 604 189 614 l 142 594 q 186 792 186 703 m 732 736 q 790 715 750 722 q 856 707 831 707 q 899 708 881 707 l 563 -71 q 435 32 533 -22 q 700 656 596 396 l 732 736 m 1039 86 q 1061 361 1061 238 q 1061 371 1061 367 l 1060 414 q 1221 347 1153 388 q 1175 103 1215 250 l 1260 113 l 1232 4 l 1154 11 l 1131 -104 l 974 -136 l 1014 -1 l 757 -14 q 808 161 792 67 q 824 285 824 256 q 824 319 824 315 l 822 378 l 1013 351 q 958 233 986 311 q 924 89 931 156 l 1039 86 z "},"¿":{"ha":628,"x_min":44,"x_max":646,"o":"m 265 172 l 265 164 q 646 231 528 178 q 607 83 633 154 q 561 -19 581 13 l 542 -53 q 226 -94 392 -94 q 189 -69 214 -90 q 143 -24 164 -49 q 44 149 86 44 q 80 199 51 163 q 136 267 108 236 q 317 401 207 339 l 471 375 q 306 242 347 297 q 265 172 265 192 m 290 604 q 396 656 335 639 q 488 674 457 674 q 544 668 519 674 q 562 581 561 613 q 563 522 563 550 q 556 464 563 493 l 547 433 q 378 442 457 433 l 351 444 l 290 604 z "},"À":{"ha":710,"x_min":32,"x_max":742,"o":"m 693 721 q 690 550 690 646 q 701 327 690 454 q 726 150 711 200 l 742 101 q 482 -58 649 28 q 483 40 483 -8 q 482 135 483 89 q 374 125 426 125 q 289 126 322 125 q 235 -43 269 71 q 125 34 185 -18 q 32 138 65 86 q 111 260 75 181 q 253 651 189 425 q 693 721 553 674 m 453 504 q 325 228 400 425 q 478 226 354 226 q 457 471 469 371 l 453 504 m 656 801 q 422 740 521 740 q 296 758 333 740 l 282 765 l 325 949 l 656 801 z "},"Á":{"ha":710,"x_min":32,"x_max":742,"o":"m 693 721 q 690 550 690 646 q 701 327 690 454 q 726 150 711 200 l 742 101 q 482 -58 649 28 q 483 40 483 -8 q 482 135 483 89 q 374 125 426 125 q 289 126 322 125 q 235 -43 269 71 q 125 34 185 -18 q 32 138 65 86 q 111 260 75 181 q 253 651 189 425 q 693 721 553 674 m 453 504 q 325 228 400 425 q 478 226 354 226 q 457 471 469 371 l 453 504 m 628 767 q 411 721 506 721 q 256 768 307 721 l 585 950 l 628 767 z "},"Â":{"ha":714,"x_min":36,"x_max":746,"o":"m 697 721 q 694 550 694 646 q 705 327 694 454 q 731 150 715 200 l 746 101 q 486 -58 653 28 q 488 40 488 -8 q 486 135 488 89 q 378 125 431 125 q 293 126 326 125 q 239 -43 274 71 q 129 34 189 -18 q 36 138 69 86 q 115 260 79 181 q 257 651 193 425 q 697 721 557 674 m 457 504 q 329 228 404 425 q 482 226 358 226 q 461 471 474 371 l 457 504 m 194 647 l 185 633 q 242 811 185 722 q 472 929 315 929 q 597 889 557 929 q 642 772 642 844 q 638 732 642 754 q 469 772 576 772 q 290 726 361 772 q 194 647 218 681 z "},"Ã":{"ha":710,"x_min":32,"x_max":750,"o":"m 693 721 q 690 550 690 646 q 701 327 690 454 q 726 150 711 200 l 742 101 q 482 -58 649 28 q 483 40 483 -8 q 482 135 483 89 q 374 125 426 125 q 289 126 322 125 q 235 -43 269 71 q 125 34 185 -18 q 32 138 65 86 q 111 260 75 181 q 253 651 189 425 q 693 721 553 674 m 453 504 q 325 228 400 425 q 478 226 354 226 q 457 471 469 371 l 453 504 m 293 910 q 458 846 357 846 q 492 847 475 846 q 518 872 501 857 q 581 910 535 886 q 667 933 628 933 q 727 914 707 933 q 748 877 747 894 q 749 846 749 860 q 733 765 749 803 l 726 746 q 708 761 721 751 q 650 784 696 771 q 575 797 604 797 q 540 797 546 797 q 462 742 510 767 q 369 718 414 718 q 297 738 324 718 q 265 804 265 760 q 283 890 265 851 l 293 910 z "},"Ä":{"ha":710,"x_min":32,"x_max":749,"o":"m 693 721 q 690 550 690 646 q 701 327 690 454 q 726 150 711 200 l 742 101 q 482 -58 649 28 q 483 40 483 -8 q 482 135 483 89 q 374 125 426 125 q 289 126 322 125 q 235 -43 269 71 q 125 34 185 -18 q 32 138 65 86 q 111 260 75 181 q 253 651 189 425 q 693 721 553 674 m 453 504 q 325 228 400 425 q 478 226 354 226 q 457 471 469 371 l 453 504 m 342 940 q 369 940 342 940 q 424 896 396 940 q 456 807 453 851 l 458 764 l 347 704 q 281 735 314 704 q 231 799 247 767 l 214 829 q 217 841 215 833 q 230 868 219 849 q 254 901 240 888 q 342 940 288 940 m 693 764 q 675 754 693 764 q 615 744 657 744 q 541 773 574 744 q 501 829 508 801 l 493 857 l 636 985 q 710 919 682 964 q 743 840 738 875 l 749 807 q 693 764 729 783 z "},"Å":{"ha":710,"x_min":32,"x_max":742,"o":"m 693 721 q 690 550 690 646 q 701 327 690 454 q 726 150 711 200 l 742 101 q 482 -58 649 28 q 483 40 483 -8 q 482 135 483 89 q 374 125 426 125 q 289 126 322 125 q 235 -43 269 71 q 125 34 185 -18 q 32 138 65 86 q 111 260 75 181 q 253 651 189 425 q 693 721 553 674 m 453 504 q 325 228 400 425 q 478 226 354 226 q 457 471 469 371 l 453 504 m 281 821 q 333 926 281 883 q 467 969 385 969 q 595 935 550 969 q 640 842 640 901 q 584 742 640 782 q 444 701 528 701 q 321 742 361 701 q 281 821 281 783 m 393 846 q 392 823 392 838 q 412 794 392 808 q 469 779 432 779 q 546 826 546 779 q 484 864 546 864 q 393 846 422 864 z "},"Æ":{"ha":1093,"x_min":35,"x_max":1160,"o":"m 479 -89 l 485 85 q 485 108 485 99 l 285 114 q 269 67 276 92 q 238 -43 251 4 q 128 34 188 -18 q 35 138 68 86 q 114 260 78 181 q 256 651 192 425 q 672 669 496 651 q 1067 749 847 688 l 1160 438 q 955 457 1081 457 q 722 450 829 457 q 747 401 722 419 q 811 375 772 382 q 954 363 892 363 q 1078 368 1017 363 q 1062 324 1078 349 q 1022 283 1046 300 q 944 251 997 265 q 839 236 892 236 q 714 250 751 236 l 700 254 q 696 237 696 247 q 708 208 696 226 q 758 174 719 190 q 855 157 797 157 q 983 174 913 157 q 1092 208 1054 192 l 1131 225 q 1010 49 1118 132 q 738 -33 901 -33 q 615 -6 671 -33 q 479 -89 549 -54 m 456 504 q 328 228 403 425 q 481 226 357 226 q 460 471 472 371 l 456 504 z "},"Ç":{"ha":667,"x_min":60,"x_max":760,"o":"m 288 -56 q 60 114 119 11 q 150 447 60 267 q 353 686 240 628 q 458 681 400 686 q 722 714 613 689 l 760 722 q 671 332 704 539 q 460 481 549 386 q 331 136 353 324 l 700 235 q 673 159 700 207 q 607 76 646 111 q 484 2 568 40 q 288 -56 400 -36 m 542 135 q 536 86 536 104 q 538 46 536 68 q 574 -56 539 -22 q 624 -75 593 -75 q 632 -75 628 -75 q 572 -160 632 -122 q 425 -197 513 -197 q 278 -158 331 -197 q 258 -136 267 -149 q 449 4 449 -89 q 418 82 449 43 l 542 135 z "},"È":{"ha":704,"x_min":65,"x_max":771,"o":"m 333 450 q 358 401 333 419 q 422 375 383 382 q 565 363 503 363 q 689 368 628 363 q 670 326 689 353 q 625 283 651 300 q 544 251 599 265 q 433 236 490 236 q 343 240 376 236 l 328 167 q 403 160 332 160 q 560 176 474 160 q 694 208 647 192 l 742 225 q 621 49 729 132 q 349 -33 513 -33 q 161 24 242 -33 q 65 135 81 81 q 174 315 94 225 q 115 433 115 369 q 265 664 115 579 q 678 749 415 749 l 771 438 q 566 457 692 457 q 333 450 440 457 m 600 836 q 367 775 465 775 q 240 793 278 775 l 226 800 l 269 983 l 600 836 z "},"É":{"ha":704,"x_min":65,"x_max":771,"o":"m 333 450 q 358 401 333 419 q 422 375 383 382 q 565 363 503 363 q 689 368 628 363 q 670 326 689 353 q 625 283 651 300 q 544 251 599 265 q 433 236 490 236 q 343 240 376 236 l 328 167 q 403 160 332 160 q 560 176 474 160 q 694 208 647 192 l 742 225 q 621 49 729 132 q 349 -33 513 -33 q 161 24 242 -33 q 65 135 81 81 q 174 315 94 225 q 115 433 115 369 q 265 664 115 579 q 678 749 415 749 l 771 438 q 566 457 692 457 q 333 450 440 457 m 613 815 q 396 769 490 769 q 240 817 292 769 l 569 999 l 613 815 z "},"Ê":{"ha":704,"x_min":65,"x_max":771,"o":"m 333 450 q 358 401 333 419 q 422 375 383 382 q 565 363 503 363 q 689 368 628 363 q 670 326 689 353 q 625 283 651 300 q 544 251 599 265 q 433 236 490 236 q 343 240 376 236 l 328 167 q 403 160 332 160 q 560 176 474 160 q 694 208 647 192 l 742 225 q 621 49 729 132 q 349 -33 513 -33 q 161 24 242 -33 q 65 135 81 81 q 174 315 94 225 q 115 433 115 369 q 265 664 115 579 q 678 749 415 749 l 771 438 q 566 457 692 457 q 333 450 440 457 m 250 739 q 222 710 231 722 l 214 699 q 260 844 214 774 q 449 940 322 940 q 528 924 497 940 q 571 883 560 907 q 589 824 589 846 q 588 796 589 803 l 585 779 q 435 813 535 813 q 250 739 336 813 z "},"Ë":{"ha":704,"x_min":65,"x_max":771,"o":"m 333 450 q 358 401 333 419 q 422 375 383 382 q 565 363 503 363 q 689 368 628 363 q 670 326 689 353 q 625 283 651 300 q 544 251 599 265 q 433 236 490 236 q 343 240 376 236 l 328 167 q 403 160 332 160 q 560 176 474 160 q 694 208 647 192 l 742 225 q 621 49 729 132 q 349 -33 513 -33 q 161 24 242 -33 q 65 135 81 81 q 174 315 94 225 q 115 433 115 369 q 265 664 115 579 q 678 749 415 749 l 771 438 q 566 457 692 457 q 333 450 440 457 m 185 944 q 192 951 185 944 q 223 970 199 958 q 278 982 247 982 q 332 964 308 982 q 367 919 356 946 q 389 824 388 871 l 390 806 l 279 746 q 213 777 246 746 q 163 839 179 808 l 146 871 q 149 883 147 875 q 162 910 151 890 q 185 944 172 929 m 625 806 q 607 796 625 806 q 556 786 589 786 q 499 798 524 786 q 461 825 474 810 q 425 899 435 857 l 568 1026 q 642 961 614 1006 q 675 883 669 917 l 681 849 q 625 806 661 825 z "},"Ì":{"ha":347,"x_min":93,"x_max":497,"o":"m 176 718 q 435 675 272 692 q 338 259 372 443 q 299 6 303 75 l 294 -62 q 93 61 189 -31 q 122 384 101 219 q 160 633 143 549 l 176 718 m 497 815 q 264 754 363 754 q 139 772 175 754 l 124 779 l 167 963 l 497 815 z "},"Í":{"ha":347,"x_min":93,"x_max":468,"o":"m 176 718 q 435 675 272 692 q 338 259 372 443 q 299 6 303 75 l 294 -62 q 93 61 189 -31 q 122 384 101 219 q 160 633 143 549 l 176 718 m 468 801 q 251 756 346 756 q 96 803 147 756 l 425 985 l 468 801 z "},"Î":{"ha":376,"x_min":122,"x_max":499,"o":"m 206 718 q 464 675 301 692 q 367 259 401 443 q 328 6 332 75 l 324 -62 q 122 61 218 -31 q 151 384 131 219 q 189 633 172 549 l 206 718 m 160 753 q 132 725 140 736 l 124 713 q 169 858 124 788 q 358 954 232 954 q 438 938 407 954 q 481 897 469 921 q 499 838 499 860 q 497 810 499 817 l 494 793 q 345 826 444 826 q 160 753 246 826 z "},"Ï":{"ha":378,"x_min":33,"x_max":568,"o":"m 207 718 q 465 675 303 692 q 368 259 403 443 q 329 6 333 75 l 325 -62 q 124 61 219 -31 q 153 384 132 219 q 190 633 174 549 l 207 718 m 73 927 q 80 934 73 927 q 110 953 86 942 q 165 965 135 965 q 219 947 196 965 q 254 903 243 929 q 278 807 275 854 l 278 789 l 167 729 q 100 760 133 729 q 50 822 67 792 l 33 854 q 37 866 35 858 q 49 893 39 874 q 73 927 60 913 m 513 789 q 494 779 513 789 q 444 769 476 769 q 386 781 411 769 q 347 808 361 793 q 313 882 322 840 l 456 1010 q 529 944 501 989 q 563 867 557 900 l 568 832 q 513 789 549 808 z "},"Ð":{"ha":753,"x_min":54,"x_max":814,"o":"m 667 149 q 642 125 667 149 q 553 68 617 100 q 411 22 490 36 q 277 7 332 7 q 178 11 222 7 l 114 124 q 146 249 114 156 l 108 244 l 54 336 q 185 350 101 343 l 231 456 l 108 433 q 182 661 131 567 q 224 682 196 669 q 358 716 253 694 q 590 738 464 738 q 610 723 597 732 q 656 682 622 714 q 717 615 689 650 q 773 526 744 581 q 814 415 801 471 q 790 332 810 383 q 744 240 769 281 q 667 149 718 199 m 511 363 l 483 290 l 408 281 l 368 149 q 471 224 425 179 q 542 308 517 268 q 600 442 588 386 l 606 464 q 460 471 543 471 l 432 361 q 511 363 457 363 z "},"Ñ":{"ha":761,"x_min":65,"x_max":828,"o":"m 531 239 q 578 686 578 507 q 578 711 578 700 l 575 764 q 828 675 724 699 q 780 337 811 503 q 725 92 749 171 l 703 13 q 504 -21 608 13 l 469 -32 l 353 388 q 267 -35 313 236 q 154 22 213 -15 q 65 94 96 58 q 113 364 81 229 q 172 567 146 499 l 197 633 q 446 690 303 672 l 531 239 m 271 935 q 436 871 335 871 q 469 872 453 871 q 496 897 479 882 q 559 935 513 911 q 645 958 606 958 q 705 939 685 958 q 726 902 725 919 q 726 871 726 885 q 711 790 726 828 l 704 771 q 686 786 699 776 q 628 809 674 796 q 553 822 582 822 q 518 822 524 822 q 440 767 488 792 q 347 743 392 743 q 275 763 301 743 q 243 829 243 785 q 261 915 243 876 l 271 935 z "},"Ò":{"ha":704,"x_min":78,"x_max":751,"o":"m 738 540 q 751 420 751 490 q 730 280 751 350 q 674 162 708 210 q 597 74 639 114 q 514 11 556 35 q 381 -50 424 -36 l 358 -56 q 167 44 239 -22 q 86 139 101 104 l 78 154 q 105 377 78 279 q 171 524 132 475 q 249 605 210 574 q 314 644 288 636 l 342 651 q 479 586 386 601 l 622 697 q 738 540 706 656 m 357 115 q 442 159 396 115 q 514 283 488 203 q 528 369 528 321 q 511 478 528 418 q 357 115 357 310 m 618 744 q 385 683 483 683 q 258 701 296 683 l 244 708 l 288 892 l 618 744 z "},"Ó":{"ha":704,"x_min":78,"x_max":751,"o":"m 738 540 q 751 420 751 490 q 730 280 751 350 q 674 162 708 210 q 597 74 639 114 q 514 11 556 35 q 381 -50 424 -36 l 358 -56 q 167 44 239 -22 q 86 139 101 104 l 78 154 q 105 377 78 279 q 171 524 132 475 q 249 605 210 574 q 314 644 288 636 l 342 651 q 479 586 386 601 l 622 697 q 738 540 706 656 m 357 115 q 442 159 396 115 q 514 283 488 203 q 528 369 528 321 q 511 478 528 418 q 357 115 357 310 m 594 735 q 378 689 472 689 q 222 736 274 689 l 551 918 l 594 735 z "},"Ô":{"ha":704,"x_min":78,"x_max":751,"o":"m 738 540 q 751 420 751 490 q 730 280 751 350 q 674 162 708 210 q 597 74 639 114 q 514 11 556 35 q 381 -50 424 -36 l 358 -56 q 167 44 239 -22 q 86 139 101 104 l 78 154 q 105 377 78 279 q 171 524 132 475 q 249 605 210 574 q 314 644 288 636 l 342 651 q 479 586 386 601 l 622 697 q 738 540 706 656 m 357 115 q 442 159 396 115 q 514 283 488 203 q 528 369 528 321 q 511 478 528 418 q 357 115 357 310 m 271 703 q 243 675 251 686 l 235 663 q 281 808 235 738 q 469 904 343 904 q 549 888 518 904 q 592 847 581 871 q 610 788 610 810 q 608 760 610 767 l 606 743 q 456 776 556 776 q 271 703 357 776 z "},"Õ":{"ha":704,"x_min":78,"x_max":751,"o":"m 738 540 q 751 420 751 490 q 730 280 751 350 q 674 162 708 210 q 597 74 639 114 q 514 11 556 35 q 381 -50 424 -36 l 358 -56 q 167 44 239 -22 q 86 139 101 104 l 78 154 q 105 377 78 279 q 171 524 132 475 q 249 605 210 574 q 314 644 288 636 l 342 651 q 479 586 386 601 l 622 697 q 738 540 706 656 m 357 115 q 442 159 396 115 q 514 283 488 203 q 528 369 528 321 q 511 478 528 418 q 357 115 357 310 m 244 875 q 410 811 308 811 q 443 813 426 811 q 469 837 453 822 q 533 875 486 851 q 619 899 579 899 q 678 879 658 899 q 699 842 699 860 q 700 811 700 825 q 686 731 700 768 l 678 711 q 660 726 672 717 q 601 749 647 736 q 526 763 556 763 q 492 763 497 763 q 413 708 461 732 q 320 683 365 683 q 247 703 275 683 q 217 769 217 725 q 236 856 217 817 l 244 875 z "},"Ö":{"ha":704,"x_min":78,"x_max":751,"o":"m 738 540 q 751 420 751 490 q 730 280 751 350 q 674 162 708 210 q 597 74 639 114 q 514 11 556 35 q 381 -50 424 -36 l 358 -56 q 167 44 239 -22 q 86 139 101 104 l 78 154 q 105 377 78 279 q 171 524 132 475 q 249 605 210 574 q 314 644 288 636 l 342 651 q 479 586 386 601 l 622 697 q 738 540 706 656 m 357 115 q 442 159 396 115 q 514 283 488 203 q 528 369 528 321 q 511 478 528 418 q 357 115 357 310 m 227 872 q 234 879 227 872 q 265 898 240 886 q 319 910 289 910 q 374 892 350 910 q 408 847 397 874 q 431 751 429 799 l 432 733 l 321 674 q 254 705 288 674 q 204 767 221 736 l 188 799 q 191 810 189 803 q 203 838 193 818 q 227 872 214 857 m 667 733 q 649 724 667 733 q 598 714 631 714 q 540 726 565 714 q 503 753 515 738 q 467 826 476 785 l 610 954 q 683 889 656 933 q 717 811 711 844 l 722 776 q 667 733 703 753 z "},"×":{"ha":689,"x_min":74,"x_max":703,"o":"m 249 -42 l 74 71 l 281 263 l 94 406 l 264 576 q 319 467 283 522 q 381 383 356 411 l 407 354 l 554 563 l 703 408 l 517 254 l 693 103 l 508 -75 q 463 60 492 -3 q 414 149 435 122 l 394 175 l 249 -42 z "},"Ø":{"ha":704,"x_min":78,"x_max":751,"o":"m 326 -46 q 319 -133 319 -100 q 319 -174 319 -165 l 321 -190 q 245 -164 286 -185 q 175 -111 204 -143 l 206 14 q 129 80 161 44 q 88 135 97 115 l 78 154 q 105 377 78 279 q 171 524 132 475 q 249 605 210 574 q 314 644 288 636 l 342 651 q 403 608 365 624 q 460 867 443 771 q 533 833 500 854 q 578 797 565 813 l 592 782 l 531 625 l 622 697 q 738 540 706 656 q 751 420 751 490 q 730 280 751 350 q 674 162 708 210 q 597 74 639 114 q 514 11 556 35 q 381 -50 424 -36 l 358 -56 l 326 -46 m 357 115 q 442 159 396 115 q 514 283 488 203 q 528 369 528 321 q 511 478 528 418 q 357 115 357 310 z "},"Ù":{"ha":732,"x_min":81,"x_max":806,"o":"m 671 0 q 492 96 528 0 q 374 28 449 51 q 240 4 300 4 q 97 13 140 4 l 82 15 q 81 53 81 33 q 81 106 81 74 q 106 290 82 138 q 176 603 129 443 q 329 658 235 632 q 497 686 424 685 q 458 613 482 660 q 390 429 435 565 q 332 169 344 293 l 474 219 q 493 431 475 336 q 528 563 511 526 l 546 599 q 806 557 651 557 q 719 260 744 390 q 694 98 694 131 q 694 58 694 65 l 699 3 q 671 0 688 0 m 657 775 q 424 714 522 714 q 297 732 335 714 l 283 739 l 326 922 l 657 775 z "},"Ú":{"ha":732,"x_min":81,"x_max":806,"o":"m 671 0 q 492 96 528 0 q 374 28 449 51 q 240 4 300 4 q 97 13 140 4 l 82 15 q 81 53 81 33 q 81 106 81 74 q 106 290 82 138 q 176 603 129 443 q 329 658 235 632 q 497 686 424 685 q 458 613 482 660 q 390 429 435 565 q 332 169 344 293 l 474 219 q 493 431 475 336 q 528 563 511 526 l 546 599 q 806 557 651 557 q 719 260 744 390 q 694 98 694 131 q 694 58 694 65 l 699 3 q 671 0 688 0 m 690 775 q 474 729 568 729 q 318 776 369 729 l 647 958 l 690 775 z "},"Û":{"ha":731,"x_min":79,"x_max":804,"o":"m 669 0 q 490 96 526 0 q 373 28 447 51 q 239 4 299 4 q 94 13 139 4 l 81 15 q 79 53 79 33 q 80 106 79 74 q 104 290 81 138 q 175 603 128 443 q 328 658 233 632 q 496 686 422 685 q 457 613 481 660 q 388 429 433 565 q 331 169 343 293 l 472 219 q 492 431 474 336 q 528 563 510 526 l 544 599 q 804 557 650 557 q 718 260 743 390 q 693 98 693 131 q 694 58 693 65 l 697 3 q 669 0 686 0 m 250 699 q 222 669 231 682 l 214 658 q 260 804 214 733 q 449 900 322 900 q 528 883 497 900 q 571 843 560 867 q 589 784 589 806 q 588 756 589 763 l 585 739 q 435 772 535 772 q 250 699 336 772 z "},"Ü":{"ha":732,"x_min":81,"x_max":806,"o":"m 671 0 q 492 96 528 0 q 374 28 449 51 q 240 4 300 4 q 97 13 140 4 l 82 15 q 81 53 81 33 q 81 106 81 74 q 106 290 82 138 q 176 603 129 443 q 329 658 235 632 q 497 686 424 685 q 458 613 482 660 q 390 429 435 565 q 332 169 344 293 l 474 219 q 493 431 475 336 q 528 563 511 526 l 546 599 q 806 557 651 557 q 719 260 744 390 q 694 98 694 131 q 694 58 694 65 l 699 3 q 671 0 688 0 m 315 944 q 342 944 315 944 q 398 900 369 944 q 429 811 426 856 l 432 768 l 321 708 q 254 740 288 708 q 204 803 221 771 l 188 833 q 191 845 189 838 q 203 872 193 853 q 228 906 214 892 q 315 944 261 944 m 667 768 q 649 758 667 768 q 589 749 631 749 q 515 777 547 749 q 475 833 482 806 l 467 861 l 610 989 q 683 924 656 968 q 717 844 711 879 l 722 811 q 667 768 703 788 z "},"Ý":{"ha":690,"x_min":49,"x_max":774,"o":"m 265 736 q 390 338 390 581 q 386 263 390 301 q 475 380 439 311 q 524 511 511 449 q 546 662 546 618 q 544 717 546 706 l 542 750 l 774 568 q 532 246 774 336 l 503 -7 l 156 -60 q 215 84 189 -4 q 240 236 240 172 q 221 344 240 300 q 172 411 201 388 q 68 468 117 457 l 49 472 q 178 606 124 540 q 249 704 232 672 l 265 736 m 638 818 q 421 772 515 772 q 265 819 317 772 l 594 1001 l 638 818 z "},"Þ":{"ha":725,"x_min":56,"x_max":803,"o":"m 233 707 l 547 763 q 479 604 515 700 q 576 610 540 610 q 630 575 590 604 q 697 517 669 546 q 756 440 725 489 q 803 338 786 392 q 640 131 767 207 q 314 44 514 54 l 275 -136 q 56 22 160 -75 l 138 339 q 107 456 115 397 l 104 475 q 185 519 133 494 l 233 707 m 556 367 q 541 371 556 367 q 502 378 526 375 q 458 382 478 382 q 401 374 438 382 q 344 169 356 215 l 349 169 q 452 185 406 169 q 525 225 499 201 q 594 311 579 272 l 600 328 q 556 367 585 360 z "},"ß":{"ha":635,"x_min":31,"x_max":654,"o":"m 517 310 q 553 304 526 310 q 601 289 581 299 q 638 258 621 279 q 654 197 654 236 q 627 113 654 157 q 561 42 600 69 q 419 -36 482 -17 l 393 -46 q 326 8 358 -25 q 278 64 293 40 l 263 86 q 483 204 478 131 q 479 226 485 218 q 313 203 328 207 q 388 335 328 215 q 447 506 447 456 q 422 538 447 536 l 375 538 q 276 260 318 417 q 219 8 233 104 l 206 -86 q 31 26 93 -43 q 97 269 56 129 q 169 571 169 514 q 168 589 169 581 q 345 660 250 629 q 504 690 440 690 l 651 576 q 602 432 640 499 q 532 338 564 365 l 500 310 l 517 310 z "},"à":{"ha":619,"x_min":60,"x_max":668,"o":"m 583 232 q 611 28 583 115 l 490 -28 q 385 86 403 -7 q 305 15 349 44 q 232 -14 261 -14 q 113 44 167 -14 q 60 156 60 103 q 82 267 60 208 q 144 381 104 326 q 253 472 185 436 q 386 507 321 507 q 481 486 451 507 l 517 558 q 603 509 565 540 q 654 456 640 478 l 668 433 q 599 278 647 354 l 583 253 q 583 232 583 242 m 261 124 q 385 192 319 124 q 457 432 401 304 q 299 281 351 374 q 256 149 256 204 q 258 124 256 136 q 261 124 260 124 m 607 633 q 374 572 472 572 q 247 590 285 572 l 233 597 l 276 781 l 607 633 z "},"á":{"ha":619,"x_min":60,"x_max":668,"o":"m 583 232 q 611 28 583 115 l 490 -28 q 385 86 403 -7 q 305 15 349 44 q 232 -14 261 -14 q 113 44 167 -14 q 60 156 60 103 q 82 267 60 208 q 144 381 104 326 q 253 472 185 436 q 386 507 321 507 q 481 486 451 507 l 517 558 q 603 509 565 540 q 654 456 640 478 l 668 433 q 599 278 647 354 l 583 253 q 583 232 583 242 m 261 124 q 385 192 319 124 q 457 432 401 304 q 299 281 351 374 q 256 149 256 204 q 258 124 256 136 q 261 124 260 124 m 613 621 q 396 575 490 575 q 240 622 292 575 l 569 804 l 613 621 z "},"â":{"ha":619,"x_min":60,"x_max":668,"o":"m 583 232 q 611 28 583 115 l 490 -28 q 385 86 403 -7 q 305 15 349 44 q 232 -14 261 -14 q 113 44 167 -14 q 60 156 60 103 q 82 267 60 208 q 144 381 104 326 q 253 472 185 436 q 386 507 321 507 q 481 486 451 507 l 517 558 q 603 509 565 540 q 654 456 640 478 l 668 433 q 599 278 647 354 l 583 253 q 583 232 583 242 m 261 124 q 385 192 319 124 q 457 432 401 304 q 299 281 351 374 q 256 149 256 204 q 258 124 256 136 q 261 124 260 124 m 267 547 q 239 518 247 531 l 231 507 q 276 653 231 582 q 465 749 339 749 q 545 732 514 749 q 588 692 576 715 q 606 633 606 654 q 604 604 606 611 l 601 588 q 452 621 551 621 q 267 547 353 621 z "},"ã":{"ha":619,"x_min":60,"x_max":668,"o":"m 583 232 q 611 28 583 115 l 490 -28 q 385 86 403 -7 q 305 15 349 44 q 232 -14 261 -14 q 113 44 167 -14 q 60 156 60 103 q 82 267 60 208 q 144 381 104 326 q 253 472 185 436 q 386 507 321 507 q 481 486 451 507 l 517 558 q 603 509 565 540 q 654 456 640 478 l 668 433 q 599 278 647 354 l 583 253 q 583 232 583 242 m 261 124 q 385 192 319 124 q 457 432 401 304 q 299 281 351 374 q 256 149 256 204 q 258 124 256 136 q 261 124 260 124 m 186 742 q 351 678 250 678 q 385 679 368 678 q 411 703 394 689 q 474 742 428 718 q 560 765 521 765 q 620 746 600 765 q 641 709 640 726 q 642 678 642 692 q 628 597 642 635 l 619 578 q 601 593 614 583 q 543 616 589 603 q 468 629 497 629 q 433 629 439 629 q 355 574 403 599 q 262 550 307 550 q 189 569 217 550 q 158 636 158 592 q 178 722 158 683 l 186 742 z "},"ä":{"ha":619,"x_min":60,"x_max":683,"o":"m 583 232 q 611 28 583 115 l 490 -28 q 385 86 403 -7 q 305 15 349 44 q 232 -14 261 -14 q 113 44 167 -14 q 60 156 60 103 q 82 267 60 208 q 144 381 104 326 q 253 472 185 436 q 386 507 321 507 q 481 486 451 507 l 517 558 q 603 509 565 540 q 654 456 640 478 l 668 433 q 599 278 647 354 l 583 253 q 583 232 583 242 m 261 124 q 385 192 319 124 q 457 432 401 304 q 299 281 351 374 q 256 149 256 204 q 258 124 256 136 q 261 124 260 124 m 188 752 q 195 759 188 752 q 226 778 201 767 q 281 790 250 790 q 335 772 311 790 q 369 728 358 754 q 392 632 390 679 l 393 614 l 282 554 q 215 585 249 554 q 165 647 182 617 l 149 679 q 152 691 150 683 q 165 718 154 699 q 188 752 175 738 m 628 614 q 610 604 628 614 q 559 594 592 594 q 501 606 526 594 q 464 633 476 618 q 428 707 438 665 l 571 835 q 644 769 617 814 q 678 692 672 725 l 683 657 q 628 614 664 633 z "},"å":{"ha":619,"x_min":60,"x_max":668,"o":"m 583 232 q 611 28 583 115 l 490 -28 q 385 86 403 -7 q 305 15 349 44 q 232 -14 261 -14 q 113 44 167 -14 q 60 156 60 103 q 82 267 60 208 q 144 381 104 326 q 253 472 185 436 q 386 507 321 507 q 481 486 451 507 l 517 558 q 603 509 565 540 q 654 456 640 478 l 668 433 q 599 278 647 354 l 583 253 q 583 232 583 242 m 261 124 q 385 192 319 124 q 457 432 401 304 q 299 281 351 374 q 256 149 256 204 q 258 124 256 136 q 261 124 260 124 m 206 669 q 258 775 206 732 q 392 818 310 818 q 520 784 475 818 q 565 690 565 750 q 509 590 565 631 q 369 550 453 550 q 246 591 286 550 q 206 669 206 632 m 318 694 q 317 672 317 686 q 337 642 317 657 q 394 628 357 628 q 471 675 471 628 q 409 713 471 713 q 318 694 347 713 z "},"æ":{"ha":882,"x_min":60,"x_max":921,"o":"m 590 108 q 638 107 606 107 q 735 123 669 107 q 842 158 800 139 l 885 179 q 888 153 888 165 q 839 44 888 99 q 636 -53 779 -24 q 588 -44 618 -50 q 490 -6 557 -37 q 383 68 422 25 q 301 10 347 35 q 232 -14 254 -14 q 113 44 167 -14 q 60 156 60 103 q 82 267 60 208 q 144 381 104 326 q 253 472 185 436 q 386 507 321 507 q 481 486 451 507 l 517 558 q 635 479 588 529 q 781 532 715 500 l 800 542 q 881 463 851 513 q 917 378 911 413 l 921 342 q 790 207 882 254 q 599 153 699 160 l 590 108 m 261 124 q 385 192 319 124 q 457 432 401 304 q 299 281 351 374 q 256 149 256 204 q 258 124 256 136 q 261 124 260 124 m 703 285 q 721 331 721 313 q 709 359 721 349 q 681 369 697 369 q 649 367 664 369 q 599 215 639 332 q 703 285 664 225 z "},"ç":{"ha":547,"x_min":47,"x_max":601,"o":"m 553 522 l 601 551 q 603 478 603 526 q 533 257 603 367 q 346 347 424 288 q 290 119 293 257 q 500 178 326 119 l 557 197 q 541 135 557 172 q 499 69 525 99 q 413 8 472 40 q 271 -43 353 -25 q 146 2 215 -35 q 47 83 76 39 q 81 251 57 174 q 133 375 106 328 q 233 500 193 471 l 250 514 q 411 482 332 482 q 553 522 490 482 m 428 135 q 422 86 422 104 q 424 46 422 68 q 460 -56 425 -22 q 510 -75 479 -75 q 518 -75 514 -75 q 458 -160 518 -122 q 311 -197 399 -197 q 164 -158 217 -197 q 144 -136 153 -149 q 335 4 335 -89 q 304 82 335 43 l 428 135 z "},"è":{"ha":561,"x_min":50,"x_max":600,"o":"m 269 108 q 317 107 285 107 q 414 123 349 107 q 522 158 479 139 l 564 179 q 567 153 567 165 q 519 44 567 99 q 315 -53 458 -24 q 262 -43 294 -50 q 158 -1 229 -36 q 50 85 86 35 q 88 267 57 174 q 147 410 119 361 l 175 458 q 329 483 253 463 q 442 522 406 504 l 479 542 q 560 463 531 513 q 594 378 590 413 l 600 342 q 469 207 561 254 q 278 153 378 160 q 269 108 274 135 m 396 285 q 414 331 414 313 q 402 359 414 349 q 374 369 390 369 q 342 367 357 369 q 292 215 332 332 q 396 285 357 225 m 538 615 q 304 554 403 554 q 178 572 215 554 l 164 579 l 207 763 l 538 615 z "},"é":{"ha":561,"x_min":50,"x_max":600,"o":"m 269 108 q 317 107 285 107 q 414 123 349 107 q 522 158 479 139 l 564 179 q 567 153 567 165 q 519 44 567 99 q 315 -53 458 -24 q 262 -43 294 -50 q 158 -1 229 -36 q 50 85 86 35 q 88 267 57 174 q 147 410 119 361 l 175 458 q 329 483 253 463 q 442 522 406 504 l 479 542 q 560 463 531 513 q 594 378 590 413 l 600 342 q 469 207 561 254 q 278 153 378 160 q 269 108 274 135 m 396 285 q 414 331 414 313 q 402 359 414 349 q 374 369 390 369 q 342 367 357 369 q 292 215 332 332 q 396 285 357 225 m 528 594 q 311 549 406 549 q 156 596 207 549 l 485 778 l 528 594 z "},"ê":{"ha":572,"x_min":61,"x_max":611,"o":"m 281 108 q 328 107 296 107 q 425 123 360 107 q 533 158 490 139 l 575 179 q 578 153 578 165 q 531 44 578 99 q 326 -53 469 -24 q 273 -43 306 -50 q 169 -1 240 -36 q 61 85 97 35 q 99 267 68 174 q 158 410 131 361 l 186 458 q 340 483 264 463 q 453 522 417 504 l 490 542 q 572 463 542 513 q 606 378 601 413 l 611 342 q 481 207 572 254 q 289 153 389 160 q 281 108 285 135 m 407 285 q 425 331 425 313 q 413 359 425 349 q 385 369 401 369 q 353 367 368 369 q 303 215 343 332 q 407 285 368 225 m 153 549 q 125 519 133 532 l 117 508 q 163 654 117 583 q 351 750 225 750 q 431 733 400 750 q 474 693 463 717 q 492 634 492 656 q 490 606 492 613 l 488 589 q 338 622 438 622 q 153 549 239 622 z "},"ë":{"ha":557,"x_min":46,"x_max":596,"o":"m 265 108 q 313 107 281 107 q 410 123 344 107 q 517 158 475 139 l 560 179 q 563 153 563 165 q 514 44 563 99 q 311 -53 454 -24 q 258 -43 290 -50 q 153 -1 225 -36 q 46 85 82 35 q 84 267 53 174 q 143 410 115 361 l 171 458 q 324 483 249 463 q 438 522 400 504 l 475 542 q 556 463 526 513 q 592 378 586 413 l 596 342 q 465 207 557 254 q 274 153 374 160 q 265 108 269 135 m 392 285 q 410 331 410 313 q 398 359 410 349 q 369 369 386 369 q 338 367 353 369 q 288 215 328 332 q 392 285 353 225 m 204 750 q 228 750 204 750 q 279 710 253 750 q 308 628 306 669 l 311 588 l 208 532 q 147 560 178 532 q 100 618 115 589 l 85 647 q 88 658 86 651 q 100 683 90 665 q 122 714 110 701 q 204 750 156 750 m 526 587 q 510 578 526 587 q 455 569 493 569 q 387 596 417 569 q 350 647 357 622 l 343 674 l 475 790 q 542 730 517 771 q 572 658 568 689 l 578 626 q 526 587 560 604 z "},"ì":{"ha":326,"x_min":60,"x_max":433,"o":"m 357 361 q 343 332 357 361 q 313 251 329 303 q 283 122 296 199 q 269 3 269 44 q 269 -44 269 -37 q 158 15 206 -15 q 94 63 111 46 l 79 79 q 94 314 79 206 q 125 467 110 422 l 140 513 q 364 449 265 490 l 397 435 q 357 361 385 419 m 433 608 q 200 547 299 547 q 75 565 111 547 l 60 572 l 103 756 l 433 608 z "},"í":{"ha":326,"x_min":79,"x_max":488,"o":"m 357 361 q 343 332 357 361 q 313 251 329 303 q 283 122 296 199 q 269 3 269 44 q 269 -44 269 -37 q 158 15 206 -15 q 94 63 111 46 l 79 79 q 94 314 79 206 q 125 467 110 422 l 140 513 q 364 449 265 490 l 397 435 q 357 361 385 419 m 488 596 q 271 550 365 550 q 115 597 167 550 l 444 779 l 488 596 z "},"î":{"ha":356,"x_min":89,"x_max":464,"o":"m 392 361 q 378 332 392 361 q 347 251 364 303 q 317 122 331 199 q 304 3 304 44 q 304 -44 304 -37 q 193 15 240 -15 q 131 63 146 46 l 114 79 q 129 314 114 206 q 160 467 144 422 l 175 513 q 399 449 300 490 l 432 435 q 392 361 419 419 m 125 550 q 97 522 106 533 l 89 510 q 135 656 89 585 q 324 751 197 751 q 403 735 372 751 q 446 694 435 718 q 464 635 464 657 q 463 607 464 614 l 460 590 q 310 624 410 624 q 125 550 211 624 z "},"ï":{"ha":346,"x_min":13,"x_max":506,"o":"m 378 361 q 364 332 378 361 q 333 251 350 303 q 303 122 317 199 q 290 3 290 44 q 290 -44 290 -37 q 179 15 226 -15 q 117 63 132 46 l 100 79 q 115 314 100 206 q 146 467 131 422 l 161 513 q 385 449 286 490 l 418 435 q 378 361 406 419 m 132 750 q 156 750 132 750 q 207 710 181 750 q 236 628 233 669 l 239 588 l 136 532 q 74 560 106 532 q 28 618 43 589 l 13 647 q 16 658 14 651 q 28 683 18 665 q 50 714 38 701 q 132 750 83 750 m 454 587 q 438 578 454 587 q 383 569 421 569 q 315 596 344 569 q 278 647 285 622 l 271 674 l 403 790 q 470 730 444 771 q 500 658 496 689 l 506 626 q 454 587 488 604 z "},"ð":{"ha":660,"x_min":50,"x_max":729,"o":"m 318 432 q 474 368 404 432 q 417 514 475 439 l 154 474 l 182 582 l 349 594 q 113 710 215 674 l 361 760 q 556 624 465 717 q 729 631 649 631 l 701 558 l 619 546 q 669 435 646 507 q 692 299 692 364 q 661 171 692 233 q 586 69 631 108 q 489 3 542 31 q 325 -49 393 -49 q 224 -22 288 -49 q 106 56 161 4 q 50 161 50 107 q 76 269 50 215 q 247 418 128 372 q 318 432 281 432 m 453 231 q 454 258 454 242 q 446 298 454 275 q 419 321 438 321 q 329 265 375 321 q 264 161 283 208 q 244 104 244 114 q 249 94 244 94 q 338 128 286 94 q 421 197 389 163 l 453 231 z "},"ñ":{"ha":625,"x_min":82,"x_max":672,"o":"m 388 47 q 435 311 435 219 q 435 324 435 318 l 432 349 q 275 135 353 281 q 261 -4 268 85 q 163 29 207 8 q 100 64 118 50 l 82 79 q 114 440 90 278 l 121 494 l 363 547 q 308 336 335 472 q 413 474 358 424 q 511 524 467 524 q 672 339 593 524 q 647 284 663 319 q 606 147 632 249 q 576 -50 579 44 q 388 47 447 -10 m 183 760 q 349 696 247 696 q 382 697 365 696 q 408 722 392 707 q 472 760 425 736 q 558 783 518 783 q 617 764 597 783 q 638 727 638 744 q 639 696 639 710 q 625 615 639 653 l 617 596 q 599 611 611 601 q 540 634 586 621 q 465 647 494 647 q 431 647 436 647 q 352 592 400 617 q 259 568 304 568 q 186 588 214 568 q 156 654 156 610 q 175 740 156 701 l 183 760 z "},"ò":{"ha":572,"x_min":63,"x_max":611,"o":"m 474 586 q 574 494 536 558 q 611 340 611 429 q 565 179 611 250 q 455 71 518 108 q 340 13 392 33 q 265 -7 288 -7 q 155 62 206 22 q 83 126 104 101 l 63 151 q 85 299 64 231 q 136 411 107 368 q 246 528 199 499 l 267 542 q 385 503 326 525 l 474 586 m 464 315 l 386 381 q 286 124 296 257 q 301 127 292 125 q 335 142 310 129 q 382 173 360 154 q 428 229 404 192 q 464 315 451 267 m 517 657 q 283 596 382 596 q 158 614 194 596 l 143 621 l 186 804 l 517 657 z "},"ó":{"ha":572,"x_min":63,"x_max":611,"o":"m 474 586 q 574 494 536 558 q 611 340 611 429 q 565 179 611 250 q 455 71 518 108 q 340 13 392 33 q 265 -7 288 -7 q 155 62 206 22 q 83 126 104 101 l 63 151 q 85 299 64 231 q 136 411 107 368 q 246 528 199 499 l 267 542 q 385 503 326 525 l 474 586 m 464 315 l 386 381 q 286 124 296 257 q 301 127 292 125 q 335 142 310 129 q 382 173 360 154 q 428 229 404 192 q 464 315 451 267 m 515 622 q 299 576 393 576 q 143 624 194 576 l 472 806 l 515 622 z "},"ô":{"ha":572,"x_min":63,"x_max":611,"o":"m 474 586 q 574 494 536 558 q 611 340 611 429 q 565 179 611 250 q 455 71 518 108 q 340 13 392 33 q 265 -7 288 -7 q 155 62 206 22 q 83 126 104 101 l 63 151 q 85 299 64 231 q 136 411 107 368 q 246 528 199 499 l 267 542 q 385 503 326 525 l 474 586 m 464 315 l 386 381 q 286 124 296 257 q 301 127 292 125 q 335 142 310 129 q 382 173 360 154 q 428 229 404 192 q 464 315 451 267 m 219 574 q 192 544 200 557 l 183 533 q 229 679 183 608 q 418 775 292 775 q 498 758 467 775 q 540 718 529 742 q 558 659 558 681 q 557 631 558 638 l 554 614 q 405 647 504 647 q 219 574 306 647 z "},"õ":{"ha":574,"x_min":63,"x_max":611,"o":"m 474 586 q 574 494 536 558 q 611 340 611 429 q 565 179 611 250 q 455 71 518 108 q 340 13 392 33 q 265 -7 288 -7 q 155 62 206 22 q 83 126 104 101 l 63 151 q 85 299 64 231 q 136 411 107 368 q 246 528 199 499 l 267 542 q 385 503 326 525 l 474 586 m 464 315 l 386 381 q 286 124 296 257 q 301 127 292 125 q 335 142 310 129 q 382 173 360 154 q 428 229 404 192 q 464 315 451 267 m 149 749 q 314 685 213 685 q 347 686 331 685 q 374 710 357 696 q 437 749 390 725 q 523 772 483 772 q 583 753 563 772 q 603 716 603 733 q 604 685 604 699 q 589 604 604 642 l 582 585 q 564 600 576 590 q 506 623 551 610 q 431 636 460 636 q 396 636 401 636 q 317 581 365 606 q 224 557 269 557 q 153 576 179 557 q 121 643 121 599 q 139 729 121 690 l 149 749 z "},"ö":{"ha":572,"x_min":63,"x_max":611,"o":"m 474 586 q 574 494 536 558 q 611 340 611 429 q 565 179 611 250 q 455 71 518 108 q 340 13 392 33 q 265 -7 288 -7 q 155 62 206 22 q 83 126 104 101 l 63 151 q 85 299 64 231 q 136 411 107 368 q 246 528 199 499 l 267 542 q 385 503 326 525 l 474 586 m 464 315 l 386 381 q 286 124 296 257 q 301 127 292 125 q 335 142 310 129 q 382 173 360 154 q 428 229 404 192 q 464 315 451 267 m 238 806 q 262 806 238 806 q 313 765 286 806 q 342 683 339 725 l 344 643 l 242 588 q 180 616 211 588 q 133 674 149 644 l 118 703 q 122 714 119 707 q 133 739 124 721 q 156 769 143 757 q 238 806 189 806 m 560 642 q 543 634 560 642 q 488 625 526 625 q 420 651 450 625 q 383 703 390 678 l 376 729 l 508 846 q 576 785 550 826 q 606 714 601 744 l 611 682 q 560 642 593 660 z "},"÷":{"ha":617,"x_min":63,"x_max":665,"o":"m 391 399 q 362 399 391 399 q 310 428 333 399 q 286 494 286 457 q 314 561 286 531 q 399 592 342 592 q 506 492 506 592 q 477 426 506 454 q 391 399 449 399 m 136 360 q 432 347 300 347 q 665 360 564 347 l 629 244 l 561 235 q 236 217 435 217 q 63 221 161 217 l 136 360 m 414 158 q 443 120 438 140 q 449 87 449 100 q 445 56 449 74 q 416 19 442 38 q 347 1 390 1 q 278 24 304 1 q 247 69 251 47 l 243 92 q 314 169 261 146 q 414 158 369 194 z "},"ø":{"ha":572,"x_min":63,"x_max":611,"o":"m 474 586 q 574 494 536 558 q 611 348 611 429 q 582 208 611 267 q 506 110 553 149 q 325 7 421 40 q 306 -149 306 -75 q 306 -167 306 -160 l 308 -190 q 182 -103 247 -175 q 210 24 193 -47 q 130 83 167 51 q 78 133 93 115 l 63 151 q 85 299 64 231 q 136 411 107 368 q 246 528 199 499 l 267 542 l 319 525 q 369 754 358 681 q 431 726 403 743 q 469 696 458 708 l 481 683 l 424 539 l 474 586 m 464 315 l 386 381 q 290 158 308 275 l 315 132 q 464 315 426 172 z "},"ù":{"ha":636,"x_min":81,"x_max":689,"o":"m 88 61 q 82 181 82 129 q 111 411 82 324 l 129 460 q 231 500 156 482 q 388 518 307 518 q 356 456 375 496 q 310 315 336 417 q 285 132 285 214 q 286 92 285 111 q 326 126 300 96 q 372 193 353 156 q 461 467 428 294 q 689 418 569 418 q 625 198 650 311 q 594 25 600 85 l 590 -35 q 505 22 551 -21 q 436 111 458 64 q 404 67 429 97 q 357 18 379 38 q 232 -44 297 -33 l 88 61 m 638 622 q 404 561 503 561 q 278 579 315 561 l 264 586 l 307 769 l 638 622 z "},"ú":{"ha":636,"x_min":85,"x_max":689,"o":"m 88 61 q 82 181 82 129 q 111 411 82 324 l 129 460 q 231 500 156 482 q 388 518 307 518 q 356 456 375 496 q 310 315 336 417 q 285 132 285 214 q 286 92 285 111 q 326 126 300 96 q 372 193 353 156 q 461 467 428 294 q 689 418 569 418 q 625 198 650 311 q 594 25 600 85 l 590 -35 q 505 22 551 -21 q 436 111 458 64 q 404 67 429 97 q 357 18 379 38 q 232 -44 297 -33 l 88 61 m 613 610 q 396 564 490 564 q 240 611 292 564 l 569 793 l 613 610 z "},"û":{"ha":636,"x_min":85,"x_max":689,"o":"m 88 61 q 82 181 82 129 q 111 411 82 324 l 129 460 q 231 500 156 482 q 388 518 307 518 q 356 456 375 496 q 310 315 336 417 q 285 132 285 214 q 286 92 285 111 q 326 126 300 96 q 372 193 353 156 q 461 467 428 294 q 689 418 569 418 q 625 198 650 311 q 594 25 600 85 l 590 -35 q 505 22 551 -21 q 436 111 458 64 q 404 67 429 97 q 357 18 379 38 q 232 -44 297 -33 l 88 61 m 268 574 q 240 544 249 557 l 232 533 q 278 679 232 608 q 467 775 340 775 q 547 758 515 775 q 589 718 578 742 q 607 659 607 681 q 606 631 607 638 l 603 614 q 453 647 553 647 q 268 574 354 647 z "},"ü":{"ha":636,"x_min":81,"x_max":689,"o":"m 88 61 q 82 181 82 129 q 111 411 82 324 l 129 460 q 231 500 156 482 q 388 518 307 518 q 356 456 375 496 q 310 315 336 417 q 285 132 285 214 q 286 92 285 111 q 326 126 300 96 q 372 193 353 156 q 461 467 428 294 q 689 418 569 418 q 625 198 650 311 q 594 25 600 85 l 590 -35 q 505 22 551 -21 q 436 111 458 64 q 404 67 429 97 q 357 18 379 38 q 232 -44 297 -33 l 88 61 m 268 757 q 292 757 268 757 q 343 716 317 757 q 372 635 369 675 l 375 594 l 272 539 q 210 568 242 539 q 164 625 179 597 l 149 654 q 152 665 150 658 q 164 690 154 672 q 186 722 174 708 q 268 757 219 757 m 590 594 q 574 585 590 594 q 527 576 557 576 q 474 587 497 576 q 439 613 451 597 q 407 681 414 646 l 539 797 q 606 737 581 778 q 636 664 632 696 l 642 633 q 590 594 624 611 z "},"ý":{"ha":596,"x_min":99,"x_max":656,"o":"m 379 567 q 311 313 311 454 q 313 248 311 294 q 338 124 315 201 q 409 281 379 188 q 449 435 439 374 l 458 496 q 656 376 592 449 q 619 304 642 350 q 551 123 596 258 q 489 -137 506 -12 q 358 -176 431 -165 q 256 -186 285 -186 q 219 -186 228 -186 l 168 -183 q 270 -87 225 -149 q 332 19 315 -25 l 349 64 l 211 -12 q 140 94 167 31 q 99 353 99 196 q 103 428 99 399 l 108 463 q 140 488 119 472 q 230 533 160 504 q 379 567 300 561 m 589 646 q 372 600 467 600 q 217 647 268 600 l 546 829 l 589 646 z "},"þ":{"ha":628,"x_min":69,"x_max":708,"o":"m 269 -150 l 271 -169 q 69 -46 165 -137 q 136 761 136 449 q 394 718 232 735 q 325 414 356 572 q 418 513 369 471 q 494 569 467 556 l 521 583 q 560 567 536 578 q 635 518 585 557 q 708 433 686 479 q 570 174 693 297 q 275 14 447 50 q 269 -94 269 -50 q 269 -150 269 -139 m 297 239 q 288 161 288 196 q 313 126 288 126 q 392 200 344 126 q 459 332 439 274 q 479 406 479 390 q 472 421 479 421 q 297 239 442 421 z "},"ÿ":{"ha":596,"x_min":99,"x_max":656,"o":"m 379 567 q 311 313 311 454 q 313 248 311 294 q 338 124 315 201 q 409 281 379 188 q 449 435 439 374 l 458 496 q 656 376 592 449 q 619 304 642 350 q 551 123 596 258 q 489 -137 506 -12 q 358 -176 431 -165 q 256 -186 285 -186 q 219 -186 228 -186 l 168 -183 q 270 -87 225 -149 q 332 19 315 -25 l 349 64 l 211 -12 q 140 94 167 31 q 99 353 99 196 q 103 428 99 399 l 108 463 q 140 488 119 472 q 230 533 160 504 q 379 567 300 561 m 226 799 q 251 799 226 799 q 301 758 275 799 q 331 676 328 717 l 333 636 l 231 581 q 169 610 200 581 q 122 667 138 639 l 107 696 q 110 707 108 700 q 122 732 113 714 q 144 764 132 750 q 226 799 178 799 m 549 635 q 532 627 549 635 q 485 618 515 618 q 433 628 456 618 q 397 654 410 639 q 365 722 372 688 l 497 839 q 565 778 539 819 q 594 706 590 738 l 600 675 q 549 635 582 653 z "},"ı":{"ha":326,"x_min":79,"x_max":397,"o":"m 357 361 q 343 332 357 361 q 313 251 329 303 q 283 122 296 199 q 269 3 269 44 q 269 -44 269 -37 q 158 15 206 -15 q 94 63 111 46 l 79 79 q 94 314 79 206 q 125 467 110 422 l 140 513 q 364 449 265 490 l 397 435 q 357 361 385 419 z "},"Ł":{"ha":542,"x_min":51,"x_max":575,"o":"m 168 390 q 186 494 186 467 q 181 611 186 561 l 178 628 q 217 650 190 636 q 347 690 244 664 q 574 726 449 717 q 440 403 513 606 q 508 404 463 404 l 481 332 l 413 324 l 379 221 q 490 233 442 221 q 557 256 539 244 l 575 268 l 519 -17 q 151 24 346 15 l 83 26 q 146 290 117 165 l 106 286 l 51 378 q 168 390 97 385 z "},"ł":{"ha":414,"x_min":64,"x_max":511,"o":"m 463 429 l 479 353 l 389 344 q 333 6 347 153 l 328 -44 q 210 6 272 -31 q 122 82 147 43 q 146 325 128 208 l 96 321 l 64 413 q 163 429 100 422 l 204 628 q 332 696 256 667 q 460 735 408 725 l 511 744 q 410 433 451 607 l 463 429 z "},"Œ":{"ha":1093,"x_min":78,"x_max":1158,"o":"m 751 431 l 750 407 q 964 363 789 363 q 1079 367 1015 363 q 1061 326 1079 353 q 1018 283 1043 300 q 941 253 993 267 q 833 239 889 239 q 747 243 778 239 l 732 172 q 804 167 736 167 q 956 182 872 167 q 1086 214 1040 197 l 1131 229 q 1014 60 1118 139 q 753 -19 910 -19 q 560 44 643 -19 q 465 -14 515 11 q 386 -47 415 -39 l 358 -56 q 167 44 239 -22 q 86 139 101 104 l 78 154 q 105 377 78 279 q 171 524 132 475 q 249 605 210 574 q 314 644 288 636 l 342 651 q 479 586 386 601 l 622 697 q 678 654 650 683 q 1068 732 822 732 l 1158 433 q 1034 447 1128 442 q 885 453 940 453 q 751 444 831 453 l 751 431 m 357 115 q 442 159 396 115 q 514 283 488 203 q 528 369 528 321 q 511 478 528 418 q 357 115 357 310 z "},"œ":{"ha":936,"x_min":63,"x_max":976,"o":"m 646 117 q 693 115 661 115 q 790 131 725 115 q 897 167 856 147 l 940 188 q 943 161 943 174 q 894 53 943 107 q 692 -44 835 -15 q 560 -3 632 -35 q 449 67 488 28 q 342 13 396 32 q 265 -7 288 -7 q 155 62 206 22 q 83 126 104 101 l 63 151 q 85 299 64 231 q 136 411 107 368 q 246 528 199 499 l 267 542 q 385 503 326 525 l 474 586 q 585 468 550 553 q 723 495 656 475 q 822 533 790 515 l 856 550 q 937 471 907 521 q 972 386 967 421 l 976 350 q 846 215 938 263 q 654 161 754 168 l 646 117 m 464 315 l 386 381 q 286 124 296 257 q 301 127 292 125 q 335 142 310 129 q 382 173 360 154 q 428 229 404 192 q 464 315 451 267 m 668 224 q 772 293 733 233 q 790 339 790 321 q 778 367 790 357 q 750 378 767 378 q 718 375 733 378 q 668 224 708 340 z "},"Š":{"ha":681,"x_min":53,"x_max":728,"o":"m 718 242 q 589 66 718 140 q 179 -37 460 -8 q 149 -4 169 -31 q 113 47 128 22 q 53 203 72 114 l 183 183 q 296 176 247 176 q 450 244 450 176 q 182 297 261 261 q 103 422 103 332 q 260 633 103 554 q 685 713 417 713 l 728 417 q 333 465 583 458 q 431 400 363 424 q 560 368 499 376 q 670 329 622 360 q 718 242 718 299 m 390 951 l 438 846 l 650 972 q 529 789 650 872 q 408 726 479 753 q 324 835 356 771 q 285 940 292 899 l 279 982 q 390 951 351 951 z "},"š":{"ha":547,"x_min":49,"x_max":615,"o":"m 563 188 q 460 46 563 107 q 144 -37 357 -15 q 49 190 75 60 q 79 183 49 190 q 235 157 181 157 q 324 165 290 157 q 368 196 358 172 q 178 223 204 211 q 133 247 153 235 q 101 321 101 268 q 131 418 101 374 q 208 489 161 463 q 315 533 254 515 q 546 563 421 563 l 579 325 q 260 365 453 360 q 424 292 279 314 q 519 259 476 285 q 563 188 563 233 m 356 794 l 403 689 l 615 815 q 494 631 615 715 q 374 569 444 596 q 289 678 321 614 q 250 783 257 742 l 244 825 q 356 794 317 794 z "},"Ÿ":{"ha":690,"x_min":49,"x_max":774,"o":"m 265 736 q 390 338 390 581 q 386 263 390 301 q 475 380 439 311 q 524 511 511 449 q 546 662 546 618 q 544 717 546 706 l 542 750 l 774 568 q 532 246 774 336 l 503 -7 l 156 -60 q 215 84 189 -4 q 240 236 240 172 q 221 344 240 300 q 172 411 201 388 q 68 468 117 457 l 49 472 q 178 606 124 540 q 249 704 232 672 l 265 736 m 226 989 q 253 989 226 989 q 309 944 281 989 q 340 856 338 900 l 343 813 l 232 753 q 165 784 199 753 q 115 847 132 815 l 99 878 q 102 890 100 882 q 115 917 104 897 q 139 950 125 936 q 226 989 172 989 m 578 813 q 560 803 578 813 q 500 793 542 793 q 426 822 458 793 q 386 878 393 850 l 378 906 l 521 1033 q 594 968 567 1013 q 628 889 622 924 l 633 856 q 578 813 614 832 z "},"Ž":{"ha":693,"x_min":68,"x_max":756,"o":"m 672 24 q 454 33 526 33 q 143 19 249 33 l 68 8 l 392 432 q 226 405 299 431 q 126 354 153 379 l 100 329 q 134 535 106 438 q 189 675 163 632 l 214 718 q 274 695 228 710 q 376 675 319 681 q 578 665 494 665 q 756 675 661 665 l 454 222 q 595 258 526 228 q 696 314 664 288 l 728 342 q 672 24 672 140 m 447 947 l 494 842 l 707 968 q 586 783 707 868 q 465 722 536 749 q 381 831 413 767 q 342 936 349 894 l 336 978 q 447 947 408 947 z "},"ž":{"ha":588,"x_min":39,"x_max":635,"o":"m 560 -8 q 239 21 431 21 q 117 17 167 21 l 39 8 l 313 335 q 181 308 238 328 q 103 272 124 289 l 83 257 q 117 420 88 342 q 172 536 146 499 l 199 572 q 240 550 207 564 q 318 531 272 536 q 490 518 418 518 q 635 525 561 518 l 375 181 q 497 209 438 185 q 583 256 556 233 l 611 278 q 560 -8 560 82 m 353 785 l 400 679 l 613 806 q 492 622 613 706 q 371 560 442 586 q 286 668 318 604 q 247 774 254 732 l 242 815 q 353 785 314 785 z "},"ƒ":{"ha":524,"x_min":93,"x_max":600,"o":"m 188 549 q 285 712 188 658 q 551 765 383 765 q 567 624 554 685 q 589 542 579 563 l 600 519 q 339 544 489 544 q 542 453 339 453 q 594 454 567 453 l 526 283 l 414 285 q 293 -31 385 82 q 93 -172 201 -143 q 217 304 171 29 l 93 354 q 222 444 149 397 q 188 549 188 481 z "},"ˆ":{"ha":622,"x_min":69,"x_max":444,"o":"m 106 829 q 78 800 86 813 l 69 789 q 115 935 69 864 q 304 1031 178 1031 q 384 1014 353 1031 q 426 974 415 997 q 444 915 444 936 q 443 886 444 893 l 440 869 q 291 903 390 903 q 106 829 192 903 z "},"ˇ":{"ha":622,"x_min":125,"x_max":496,"o":"m 236 982 l 283 876 l 496 1003 q 375 819 496 903 q 254 757 325 783 q 169 865 201 801 q 131 971 138 929 l 125 1013 q 236 982 197 982 z "},"˘":{"ha":622,"x_min":69,"x_max":442,"o":"m 71 921 q 192 888 121 888 q 320 916 263 888 q 410 972 378 944 l 442 1001 q 416 935 438 979 q 371 863 394 890 q 303 812 347 835 q 212 789 260 789 q 134 803 164 789 q 92 836 104 817 q 69 907 68 875 l 71 921 z "},"˙":{"ha":386,"x_min":76,"x_max":310,"o":"m 76 903 l 201 1031 q 273 966 246 1010 q 306 889 300 922 l 310 857 l 199 797 q 135 824 165 797 q 90 876 104 850 l 76 903 z "},"˚":{"ha":426,"x_min":24,"x_max":383,"o":"m 24 882 q 76 988 24 944 q 210 1031 128 1031 q 338 997 293 1031 q 383 903 383 963 q 327 803 383 843 q 188 763 271 763 q 64 803 104 763 q 24 882 24 844 m 136 907 q 135 884 135 899 q 155 855 135 869 q 213 840 175 840 q 289 888 289 840 q 227 925 289 925 q 136 907 165 925 z "},"˛":{"ha":743,"x_min":192,"x_max":486,"o":"m 319 -72 q 375 -112 319 -112 q 431 -102 403 -112 q 472 -81 458 -92 l 486 -71 l 483 -85 q 469 -115 481 -93 q 442 -153 458 -136 q 392 -183 425 -169 q 308 -197 358 -197 q 225 -176 258 -197 q 192 -122 192 -154 q 209 -63 192 -90 q 244 -17 226 -36 q 272 57 272 17 q 260 132 272 97 l 392 72 q 319 -72 319 -17 z "},"˜":{"ha":578,"x_min":47,"x_max":532,"o":"m 75 943 q 240 879 139 879 q 274 881 257 879 q 300 905 283 890 q 363 943 317 919 q 449 967 410 967 q 509 947 489 967 q 530 910 529 928 q 531 879 531 893 q 517 799 531 836 l 508 779 q 490 794 503 785 q 432 817 478 804 q 357 831 386 831 q 322 831 328 831 q 244 776 292 800 q 151 751 196 751 q 78 771 106 751 q 47 838 47 793 q 67 924 47 885 l 75 943 z "},"˝":{"ha":706,"x_min":36,"x_max":669,"o":"m 154 796 q 36 836 81 796 l 296 1011 l 343 863 q 192 800 275 817 q 154 796 174 796 m 481 796 q 363 836 407 796 l 622 1011 l 669 863 q 518 800 601 817 q 481 796 500 796 z "},"π":{"ha":725,"x_min":82,"x_max":751,"o":"m 635 588 q 721 625 721 588 l 721 626 l 751 626 l 751 622 q 721 525 751 558 q 622 494 688 494 l 604 494 q 590 496 599 496 l 586 268 l 586 215 q 596 78 586 106 q 640 50 608 50 q 714 204 706 50 l 746 204 l 746 197 q 713 43 746 93 q 605 -7 679 -7 q 501 46 531 -7 q 471 261 471 99 l 474 364 l 476 500 q 411 501 461 501 l 310 504 q 279 96 310 197 q 174 -7 250 -7 q 82 144 82 -7 l 82 169 l 114 169 q 163 100 117 100 q 238 181 215 100 q 265 504 261 261 l 236 504 q 122 435 133 504 l 92 435 q 141 560 96 525 q 300 596 186 596 l 635 588 z "},"–":{"ha":617,"x_min":61,"x_max":657,"o":"m 61 199 l 94 356 q 433 364 293 356 q 615 381 574 372 l 657 388 l 611 217 q 146 203 376 217 l 61 199 z "},"—":{"ha":769,"x_min":61,"x_max":810,"o":"m 61 199 l 94 356 q 731 381 476 356 l 810 388 l 764 217 q 183 203 518 217 l 61 199 z "},"‘":{"ha":238,"x_min":143,"x_max":342,"o":"m 308 847 q 300 761 300 797 q 325 586 300 661 l 342 539 l 147 486 q 144 558 144 518 q 156 653 144 597 q 192 744 167 708 q 289 839 244 822 l 308 847 z "},"’":{"ha":206,"x_min":131,"x_max":329,"o":"m 164 486 q 172 572 172 536 q 147 747 172 672 l 131 794 l 325 847 q 328 776 328 815 q 317 681 328 736 q 281 589 306 625 q 183 494 228 511 l 164 486 z "},"‚":{"ha":244,"x_min":28,"x_max":226,"o":"m 61 -197 q 69 -111 69 -147 q 44 64 69 -11 l 28 111 l 222 164 q 225 92 225 132 q 214 -3 225 53 q 178 -94 203 -58 q 81 -189 125 -172 l 61 -197 z "},"“":{"ha":496,"x_min":143,"x_max":600,"o":"m 567 847 q 558 761 558 797 q 583 586 558 661 l 600 539 l 406 486 q 403 558 403 518 q 414 653 403 597 q 450 744 425 708 q 547 839 503 822 l 567 847 m 308 847 q 300 761 300 797 q 325 586 300 661 l 342 539 l 147 486 q 144 558 144 518 q 156 653 144 597 q 192 744 167 708 q 289 839 244 822 l 308 847 z "},"”":{"ha":464,"x_min":131,"x_max":588,"o":"m 164 486 q 172 572 172 536 q 147 747 172 672 l 131 794 l 325 847 q 328 776 328 815 q 317 681 328 736 q 281 589 306 625 q 183 494 228 511 l 164 486 m 422 486 q 431 572 431 536 q 406 747 431 672 l 389 794 l 583 847 q 586 776 586 815 q 575 681 586 736 q 539 589 564 625 q 442 494 486 511 l 422 486 z "},"„":{"ha":501,"x_min":65,"x_max":522,"o":"m 99 0 q 107 86 107 50 q 81 261 107 186 l 65 308 l 260 361 q 263 290 263 329 q 251 194 263 250 q 215 103 240 139 q 118 8 163 25 l 99 0 m 357 0 q 365 86 365 50 q 339 261 365 186 l 324 308 l 518 361 q 521 290 521 329 q 510 194 521 250 q 474 103 499 139 q 376 8 421 25 l 357 0 z "},"†":{"ha":586,"x_min":76,"x_max":639,"o":"m 625 500 q 636 372 625 446 l 639 349 l 457 329 q 400 -103 418 114 l 394 -172 q 219 -28 271 -101 q 251 308 226 115 l 76 292 l 143 482 q 276 493 176 488 l 303 657 l 569 744 q 492 499 525 646 q 625 500 532 500 z "},"‡":{"ha":590,"x_min":76,"x_max":639,"o":"m 625 500 q 636 372 625 446 l 639 349 l 457 329 l 446 269 q 551 285 507 278 l 590 138 l 425 121 q 394 -158 403 -33 l 392 -200 q 222 -50 274 -124 q 231 100 225 25 l 78 85 l 139 258 q 244 250 156 250 q 251 308 246 269 l 76 292 l 143 482 q 276 493 176 488 l 303 657 l 569 744 q 492 499 525 646 q 625 500 532 500 z "},"•":{"ha":369,"x_min":107,"x_max":378,"o":"m 378 314 q 341 213 378 260 q 239 165 304 165 q 140 210 174 165 q 107 293 107 254 q 110 308 108 299 q 122 342 111 318 q 147 385 132 367 q 192 419 163 404 q 258 435 221 435 q 301 382 267 413 q 376 333 336 351 q 378 314 378 324 z "},"…":{"ha":1057,"x_min":26,"x_max":1067,"o":"m 26 124 l 190 290 q 285 206 250 263 q 328 106 321 149 l 333 63 l 188 -15 q 104 19 144 -15 q 44 89 64 54 l 26 124 m 394 124 l 558 290 q 653 206 618 263 q 694 106 689 149 l 701 63 l 556 -15 q 472 19 513 -15 q 414 89 432 54 l 394 124 m 760 124 l 924 290 q 1019 206 983 263 q 1061 106 1054 149 l 1067 63 l 921 -15 q 838 19 878 -15 q 778 89 797 54 l 760 124 z "},"‰":{"ha":1458,"x_min":103,"x_max":1478,"o":"m 686 740 q 763 708 717 719 q 836 696 810 696 q 876 697 863 696 q 792 543 849 646 q 701 376 736 440 q 612 223 667 313 q 514 75 557 133 q 307 -124 404 -69 l 686 740 m 497 585 q 511 504 511 553 q 487 407 511 456 q 428 331 463 358 q 297 253 356 272 l 272 246 q 172 294 214 263 q 117 350 129 326 l 103 374 q 175 610 103 519 q 203 639 192 631 l 215 646 q 305 656 263 646 q 367 675 347 665 l 385 683 q 497 585 463 664 m 342 474 l 222 472 q 219 454 219 463 q 251 404 219 418 q 306 390 282 390 q 353 397 331 390 q 403 446 403 411 q 390 471 403 468 q 342 474 376 474 m 1067 307 q 1081 226 1081 275 q 1056 129 1081 178 q 997 53 1032 81 q 867 -25 925 -6 l 842 -32 q 741 17 783 -15 q 686 72 699 49 l 672 96 q 744 332 672 242 q 772 361 761 353 l 785 368 q 874 378 832 368 q 936 397 917 388 l 954 406 q 1067 307 1032 386 m 911 196 l 792 194 q 789 176 789 185 q 820 126 789 140 q 876 113 851 113 q 922 119 900 113 q 972 168 972 133 q 959 193 972 190 q 911 196 946 196 m 1464 303 q 1478 222 1478 271 q 1458 127 1478 174 q 1408 56 1438 81 q 1300 -11 1349 1 l 1281 -17 q 1180 32 1222 0 q 1125 88 1138 64 l 1111 111 q 1128 238 1111 176 q 1161 328 1144 300 l 1176 357 q 1267 368 1224 357 q 1331 390 1311 379 l 1351 401 q 1464 303 1429 382 m 1311 211 l 1204 210 q 1203 192 1203 200 q 1242 139 1203 156 q 1295 128 1269 128 q 1344 133 1321 128 q 1397 183 1397 149 q 1311 211 1397 211 z "},"‹":{"ha":524,"x_min":94,"x_max":579,"o":"m 94 414 q 274 556 188 481 q 400 672 361 631 l 440 714 q 494 631 460 667 q 554 581 529 594 l 579 568 l 290 394 q 396 300 332 343 q 503 239 460 257 l 546 222 q 318 129 450 150 q 125 374 240 222 l 94 414 z "},"›":{"ha":525,"x_min":104,"x_max":589,"o":"m 589 401 q 409 260 496 335 q 283 143 322 185 l 243 101 q 189 185 224 149 q 129 233 154 221 l 104 247 l 393 421 q 288 515 351 472 q 181 575 224 558 l 138 593 q 365 686 233 665 q 558 442 443 593 l 589 401 z "},"⁄":{"ha":356,"x_min":21,"x_max":485,"o":"m 318 736 q 376 715 336 722 q 442 707 417 707 q 485 708 467 707 l 149 -71 q 21 32 119 -22 q 286 656 182 396 l 318 736 z "},"€":{"ha":814,"x_min":64,"x_max":863,"o":"m 533 144 q 697 169 621 144 q 807 217 774 193 l 840 242 q 723 62 828 149 q 468 -25 618 -25 q 273 35 357 -25 q 168 186 189 94 l 64 178 l 83 260 l 163 263 q 165 311 163 278 l 88 310 l 100 388 l 176 388 q 769 749 251 749 l 863 438 q 643 456 738 456 q 396 388 463 456 l 711 388 l 685 325 l 358 317 q 356 279 356 292 l 356 271 l 668 283 l 643 224 l 375 203 q 533 144 414 144 z "},"™":{"ha":844,"x_min":168,"x_max":944,"o":"m 211 786 q 419 763 289 763 q 506 772 457 763 q 476 639 482 733 l 388 636 q 358 400 365 515 q 239 431 279 411 l 226 436 l 279 633 l 168 631 q 197 692 186 653 q 208 758 207 731 l 211 786 m 556 753 q 713 800 626 794 l 714 583 l 807 825 q 944 774 868 789 q 926 629 942 710 q 897 500 911 549 l 883 453 q 760 415 844 428 q 797 597 793 526 l 799 621 q 678 436 735 485 q 642 582 651 489 l 638 613 q 594 399 611 546 q 493 463 522 419 q 543 718 507 618 l 556 753 z "},"Ω":{"ha":1060,"x_min":147,"x_max":1060,"o":"m 889 122 q 981 147 958 122 q 1010 240 1003 168 l 1040 240 l 1040 0 l 669 0 l 669 246 q 836 350 775 267 q 899 567 899 433 q 818 786 899 700 q 604 872 738 872 q 390 786 471 872 q 310 566 310 700 q 369 349 310 432 q 539 246 429 267 l 539 0 l 167 0 l 167 240 l 199 240 q 226 147 203 171 q 318 122 250 122 l 486 122 l 486 203 q 236 325 328 232 q 147 557 147 421 q 273 820 147 719 q 604 921 399 921 q 935 821 810 921 q 1060 557 1060 721 q 969 324 1060 418 q 721 203 879 231 l 721 122 l 889 122 z "},"∂":{"ha":535,"x_min":72,"x_max":582,"o":"m 476 388 q 493 589 493 451 q 407 817 493 817 q 338 769 381 817 q 267 722 296 722 q 211 765 211 722 q 251 833 211 804 q 351 863 293 863 q 519 765 457 863 q 582 497 582 667 q 494 125 582 275 q 279 -22 406 -22 q 129 47 188 -22 q 72 235 72 119 q 144 432 72 350 q 315 514 215 514 q 414 484 375 514 q 476 388 453 454 m 336 472 q 219 389 264 472 q 174 171 174 308 q 203 50 174 92 q 288 8 232 8 q 406 91 360 8 q 453 301 453 174 q 423 428 453 385 q 336 472 393 472 z "},"∆":{"ha":808,"x_min":29,"x_max":796,"o":"m 796 0 l 29 0 l 397 897 l 426 897 l 796 0 m 124 60 l 622 60 l 374 674 l 124 60 z "},"∏":{"ha":1326,"x_min":218,"x_max":1265,"o":"m 339 -197 l 339 1004 l 218 1004 l 218 1058 l 1265 1058 l 1265 1004 l 1144 1004 l 1144 -197 l 1265 -197 l 1265 -251 l 906 -251 l 906 -197 l 1019 -197 l 1019 1004 l 464 1004 l 464 -197 l 578 -197 l 578 -251 l 218 -251 l 218 -197 l 339 -197 z "},"∑":{"ha":921,"x_min":169,"x_max":897,"o":"m 863 654 q 633 850 846 850 l 376 850 l 704 490 l 704 469 l 351 132 l 753 132 q 838 154 815 132 q 865 249 858 178 l 897 249 l 897 0 l 169 0 l 169 38 l 582 435 l 188 869 l 188 901 l 894 901 l 894 654 l 863 654 z "},"−":{"ha":622,"x_min":75,"x_max":663,"o":"m 122 367 l 663 367 q 610 218 656 331 q 172 203 467 218 l 75 199 l 122 367 z "},"√":{"ha":690,"x_min":89,"x_max":918,"o":"m 918 1056 l 840 1056 l 444 -14 l 401 -14 l 189 574 l 106 544 l 89 597 l 276 663 l 447 190 l 792 1119 l 918 1119 l 918 1056 z "},"∞":{"ha":899,"x_min":101,"x_max":928,"o":"m 731 86 q 528 256 601 86 q 429 127 481 168 q 314 86 378 86 q 163 158 226 86 q 101 342 101 232 q 156 522 101 451 q 300 592 211 592 q 413 551 364 592 q 503 422 461 510 q 715 592 585 592 q 866 520 804 592 q 928 338 928 449 q 873 156 928 226 q 731 86 818 86 m 551 301 q 735 175 617 175 q 851 223 807 175 q 894 345 894 271 q 854 467 894 419 q 752 513 813 513 q 647 463 692 513 q 551 301 601 415 m 479 378 q 294 504 408 504 q 180 456 225 504 q 135 334 135 408 q 175 213 135 260 q 276 165 218 165 q 379 210 335 165 q 479 378 424 256 z "},"∫":{"ha":374,"x_min":-58,"x_max":549,"o":"m -58 -240 q 7 -176 -58 -176 q 65 -219 46 -176 q 107 -261 86 -261 q 182 171 169 -261 q 185 283 182 253 q 249 768 197 651 q 331 884 281 844 q 435 924 381 924 q 519 898 489 924 q 549 839 549 872 q 531 788 549 806 q 479 771 514 771 q 424 813 444 771 q 386 856 406 856 q 310 442 319 856 l 306 310 q 242 -174 293 -57 q 160 -288 210 -247 q 56 -329 110 -329 q -28 -303 3 -329 q -58 -240 -58 -278 z "},"≈":{"ha":736,"x_min":72,"x_max":793,"o":"m 147 284 q 160 275 147 284 q 201 253 174 265 q 268 236 229 242 q 333 231 307 231 q 379 232 358 231 q 415 264 392 244 q 500 316 438 283 q 617 349 563 349 q 697 322 671 349 q 728 253 728 293 q 707 121 728 176 l 697 94 q 542 158 650 142 q 479 164 504 164 q 446 164 454 164 q 344 92 413 126 q 213 57 275 57 q 115 84 151 57 q 75 149 78 111 q 74 181 74 161 q 97 289 74 238 l 110 317 q 147 284 119 303 m 212 545 q 225 536 212 545 q 267 515 239 526 q 333 497 294 503 q 398 492 372 492 q 444 493 424 492 q 480 525 457 506 q 565 577 503 544 q 682 610 628 610 q 764 583 736 610 q 793 514 793 554 q 772 382 793 438 l 763 356 q 607 419 715 403 q 544 425 569 425 q 511 425 519 425 q 409 353 478 388 q 278 318 340 318 q 180 345 217 318 q 139 410 143 372 q 139 442 139 422 q 163 550 139 499 l 175 578 q 212 545 185 564 z "},"≠":{"ha":632,"x_min":44,"x_max":736,"o":"m 690 438 l 472 436 l 440 333 l 664 335 l 615 208 q 404 204 497 208 q 344 -44 367 67 l 339 -78 q 225 19 290 -53 q 276 197 247 94 q 67 169 144 188 l 44 165 l 114 333 l 315 333 l 343 433 l 107 425 l 175 567 l 376 567 q 425 788 406 683 q 594 753 465 767 q 518 567 560 675 l 736 567 l 690 438 z "},"≤":{"ha":590,"x_min":54,"x_max":597,"o":"m 54 -3 l 96 154 l 597 161 l 564 29 q 114 6 286 29 l 54 -3 m 110 472 q 289 590 211 528 q 393 688 367 653 l 419 722 q 476 647 436 681 q 546 601 515 614 l 576 589 l 344 446 q 426 376 374 408 q 517 328 479 343 l 556 314 q 438 246 511 278 q 311 208 365 214 q 142 436 236 331 l 110 472 z "},"≥":{"ha":563,"x_min":31,"x_max":589,"o":"m 589 428 q 410 310 488 372 q 306 213 332 247 l 279 178 q 223 253 263 219 q 153 299 183 286 l 122 311 l 354 454 q 272 524 325 492 q 181 572 219 557 l 143 586 q 260 654 188 622 q 388 692 333 686 q 556 464 463 569 l 589 428 m 31 -3 l 72 154 l 574 161 l 540 29 q 92 6 263 29 l 31 -3 z "},"◊":{"ha":676,"x_min":108,"x_max":754,"o":"m 754 482 l 474 -64 l 385 -64 l 108 482 l 388 1028 l 478 1028 l 754 482 m 653 479 l 458 861 q 432 935 440 904 l 429 935 q 401 861 415 890 l 208 485 l 404 99 q 429 28 421 63 l 433 28 q 458 97 440 58 l 653 479 z "},"":{"ha":2260,"x_min":278,"x_max":1982,"o":"m 1429 497 l 1436 367 l 1279 367 q 1290 663 1279 589 l 1294 690 l 1400 690 q 1408 588 1408 632 l 1411 601 q 1521 696 1436 696 q 1599 663 1576 696 q 1624 556 1622 631 l 1626 367 l 1471 367 l 1474 497 q 1453 532 1474 532 q 1429 497 1429 532 m 442 367 l 281 367 q 292 739 281 558 l 296 793 l 428 793 q 442 367 442 603 m 1814 696 q 1946 650 1910 696 q 1982 526 1982 604 q 1940 403 1982 447 q 1815 358 1897 358 q 1690 403 1732 358 q 1647 524 1647 447 q 1814 696 1647 696 m 1782 506 q 1782 486 1782 506 q 1815 467 1782 467 q 1847 506 1847 467 q 1815 546 1847 546 q 1782 506 1782 546 m 651 696 q 813 540 813 696 l 813 367 l 707 367 l 694 447 q 592 358 678 358 q 468 514 468 358 q 511 650 468 604 q 651 696 554 696 m 644 467 q 678 506 678 467 q 644 546 678 546 q 615 506 615 546 q 644 467 615 467 m 1142 324 q 1220 283 1190 324 q 1250 159 1250 242 q 1204 28 1250 76 q 1074 -21 1158 -21 q 1076 -79 1076 -42 l 900 -79 q 911 267 900 114 l 915 313 l 1024 313 q 1033 208 1033 242 q 1142 324 1053 324 m 1106 142 q 1079 171 1106 171 q 1047 129 1047 171 l 1053 92 q 1089 106 1072 92 q 1106 142 1106 121 m 1501 82 q 1558 103 1532 82 l 1558 1 q 1447 -21 1529 -21 q 1319 24 1365 -21 q 1274 147 1274 69 q 1444 324 1274 324 q 1558 281 1517 324 q 1600 165 1600 239 l 1593 115 l 1426 115 q 1501 82 1426 82 m 1418 150 l 1472 150 q 1474 161 1474 154 q 1449 188 1474 188 q 1418 150 1418 188 m 860 447 l 863 567 l 831 567 l 831 682 l 992 732 l 997 690 l 1236 690 q 1247 367 1247 603 l 1089 367 q 1092 567 1089 519 l 1013 567 l 1015 479 q 1031 476 1018 476 l 1054 482 l 1054 382 q 968 358 1044 358 q 860 447 860 358 m 1168 708 q 1151 708 1168 708 q 1110 733 1133 708 q 1086 792 1086 757 q 1110 851 1086 826 q 1168 875 1133 875 q 1226 851 1203 875 q 1250 792 1250 826 q 1226 733 1250 757 q 1168 708 1203 708 m 313 68 l 315 182 l 278 182 l 278 297 l 446 353 l 451 313 l 681 313 q 678 165 678 171 q 699 129 678 129 q 721 165 721 129 l 718 313 l 865 313 q 874 122 874 232 q 824 -33 874 13 q 677 -79 774 -79 q 536 -50 581 -79 l 536 65 q 624 39 571 39 q 701 51 676 39 q 731 76 726 64 l 736 89 q 657 68 721 68 q 528 171 528 68 l 528 182 l 465 182 l 468 97 q 507 106 490 97 l 507 3 q 414 -21 482 -21 q 313 68 313 -21 m 1707 274 q 1696 257 1707 261 l 1707 239 l 1694 239 l 1685 254 l 1675 254 l 1675 239 l 1664 239 l 1664 290 l 1686 290 q 1707 274 1707 290 m 1686 264 q 1696 272 1696 264 q 1686 281 1696 281 l 1675 281 l 1675 264 l 1686 264 m 1647 228 q 1640 235 1647 228 q 1632 264 1632 243 q 1647 300 1632 285 q 1683 315 1663 315 q 1719 300 1704 315 q 1735 264 1735 285 q 1719 228 1735 243 q 1683 213 1704 213 q 1647 228 1663 213 m 1654 293 q 1648 287 1654 293 q 1642 264 1642 281 q 1654 235 1642 247 q 1683 222 1667 222 q 1713 235 1700 222 q 1725 264 1725 247 q 1713 293 1725 281 q 1683 306 1700 306 q 1654 293 1667 306 z "},"ﬁ":{"ha":785,"x_min":49,"x_max":908,"o":"m 188 435 q 149 528 149 468 q 180 635 149 588 q 267 708 211 683 q 507 751 365 751 q 522 610 510 671 q 544 528 535 549 l 556 506 q 294 531 444 531 q 333 467 294 492 q 482 442 371 442 q 542 443 510 442 l 482 269 l 379 268 q 307 -97 342 174 q 106 60 169 -24 l 149 296 l 49 340 q 188 435 114 388 m 817 361 q 803 332 817 361 q 772 251 789 303 q 742 122 756 199 q 729 3 729 44 q 729 -44 729 -37 q 618 15 665 -15 q 556 63 571 46 l 539 79 q 554 314 539 206 q 585 467 569 422 l 600 513 q 824 449 725 490 l 857 435 q 817 361 844 419 m 810 503 q 767 524 793 510 q 690 585 742 538 q 618 685 638 632 q 684 727 653 700 q 729 772 715 754 l 743 792 q 889 747 828 778 l 908 736 q 901 690 906 718 q 870 599 896 663 q 810 503 844 536 z "},"ﬂ":{"ha":793,"x_min":49,"x_max":939,"o":"m 188 435 q 149 528 149 468 q 180 635 149 588 q 267 708 211 683 q 507 751 365 751 q 522 610 510 671 q 544 528 535 549 l 556 506 q 294 531 444 531 q 333 467 294 492 q 482 442 371 442 q 542 443 510 442 l 482 269 l 379 268 q 307 -97 342 174 q 106 60 169 -24 l 149 296 l 49 340 q 188 435 114 388 m 756 -24 l 756 -68 q 538 67 603 -6 q 577 338 549 189 q 628 574 606 486 l 650 661 q 785 723 713 699 q 897 753 857 747 l 939 758 q 846 513 885 642 q 790 286 807 385 q 756 -24 756 79 z "}," ":{"ha":181,"x_min":0,"x_max":0,"o":""}}}
